<?xml version="1.0" standalone="no"?>
<!DOCTYPE svg PUBLIC "-//W3C//DTD SVG 1.1//EN" "http://www.w3.org/Graphics/SVG/1.1/DTD/svg11.dtd" >
<svg xmlns="http://www.w3.org/2000/svg">
<metadata></metadata>
<defs>
<font id="summer_fontlight" horiz-adv-x="582" >
<font-face units-per-em="2048" ascent="1638" descent="-410" />
<missing-glyph horiz-adv-x="300" />
<glyph unicode="&#xfb01;" horiz-adv-x="593" d="M89 798q2 -90 8 -205q5 -103 6 -106q0 -68 -5 -327q1 -44 0 -91q-2 -38 0 -54q2 -24 25 -16q23 9 24 38q0 22 -1 153q3 162 9 269q4 80 -2 226q-6 109 5 121q10 10 142 20q36 7 42 31q5 25 -48 20q-25 -2 -53 -7l-37 -5q-31 -4 -45 7q-21 15 -22 165q-2 157 31 206 q16 24 64 19q47 -5 76 -33q18 -17 38 -63q14 -33 39 -34q23 -1 6 52t-53 91q-51 56 -140 45q-59 -12 -78 -54q-12 -36 -18 -68q-22 -101 -13 -400zM424 968q1 21 16 36q6 7 29 7q22 0 31 -13q10 -15 10 -31q0 -41 -40 -40q-22 0 -35 14q-12 12 -11 27zM452 835q-2 -2 1 -343 q1 -38 0 -159q-1 -102 1 -149q2 -101 8 -166q1 -24 21 -16q22 10 20 38q-1 40 0 156q0 150 5 258q5 96 -1 192q-6 98 -5 116q1 45 -18 68q-19 21 -32 5z" />
<glyph unicode="&#xfb02;" horiz-adv-x="813" d="M89 798q2 -90 8 -205q5 -103 6 -106q0 -68 -5 -327q1 -44 0 -91q-2 -38 0 -54q2 -24 25 -16q23 9 24 38q0 22 -1 153q3 162 9 269q4 80 -2 226q-6 109 5 121q10 10 142 20q36 7 42 31q5 25 -48 20q-25 -2 -53 -7l-37 -5q-31 -4 -45 7q-21 15 -22 165q-2 157 31 206 q16 24 64 19q47 -5 76 -33q18 -17 38 -63q14 -33 39 -34q23 -1 6 52t-53 91q-51 56 -140 45q-59 -12 -78 -54q-12 -36 -18 -68q-22 -101 -13 -400zM513 1217q2 -104 1 -146q-28 -810 6 -961q20 -90 86 -106q56 -13 98 20q31 25 45 56q14 32 -8 35q-14 2 -37 -23 q-28 -30 -41 -37q-34 -18 -53 -13q-16 5 -34 32q-28 43 -27 347q0 81 3 222q2 116 2 137q-2 49 4 279q5 232 5 246q-1 29 -24 37q-24 9 -26 -16q-1 -16 0 -109z" />
<glyph unicode="&#xfb03;" horiz-adv-x="1002" d="M89 798q2 -90 8 -205q5 -103 6 -106q0 -68 -5 -327q1 -44 0 -91q-2 -38 0 -54q2 -24 25 -16q23 9 24 38q0 22 -1 153q3 162 9 269q4 80 -2 226q-6 109 5 121q10 10 142 20q36 7 42 31q5 25 -48 20q-25 -2 -53 -7l-37 -5q-31 -4 -45 7q-21 15 -22 165q-2 157 31 206 q16 24 64 19q47 -5 76 -33q18 -17 38 -63q14 -33 39 -34q23 -1 6 52t-53 91q-51 56 -140 45q-59 -12 -78 -54q-12 -36 -18 -68q-22 -101 -13 -400zM479 798q2 -90 8 -205q5 -103 6 -106q0 -68 -5 -327q1 -44 0 -91q-2 -38 0 -54q2 -24 25 -16q23 9 24 38q0 22 -1 153 q3 162 9 269q4 80 -2 226q-6 109 5 121q10 10 142 20q36 7 42 31q5 25 -48 20q-25 -2 -53 -7l-37 -5q-31 -4 -45 7q-21 15 -22 165q-2 157 31 206q16 24 64 19q47 -5 76 -33q18 -17 38 -63q14 -33 39 -34q23 -1 6 52t-53 91q-51 56 -140 45q-59 -12 -78 -54q-12 -36 -18 -68 q-22 -101 -13 -400zM833 968q1 21 16 36q6 7 29 7q22 0 31 -13q10 -15 10 -31q0 -41 -40 -40q-22 0 -35 14q-12 12 -11 27zM861 835q-2 -2 1 -343q1 -38 0 -159q-1 -102 1 -149q2 -101 8 -166q1 -24 21 -16q22 10 20 38q-1 40 0 156q0 150 5 258q5 96 -1 192q-6 98 -5 116 q1 45 -18 68q-19 21 -32 5z" />
<glyph unicode="&#xfb04;" horiz-adv-x="1191" d="M89 798q2 -90 8 -205q5 -103 6 -106q0 -68 -5 -327q1 -44 0 -91q-2 -38 0 -54q2 -24 25 -16q23 9 24 38q0 22 -1 153q3 162 9 269q4 80 -2 226q-6 109 5 121q10 10 142 20q36 7 42 31q5 25 -48 20q-25 -2 -53 -7l-37 -5q-31 -4 -45 7q-21 15 -22 165q-2 157 31 206 q16 24 64 19q47 -5 76 -33q18 -17 38 -63q14 -33 39 -34q23 -1 6 52t-53 91q-51 56 -140 45q-59 -12 -78 -54q-12 -36 -18 -68q-22 -101 -13 -400zM494 798q2 -90 8 -205q5 -103 6 -106q0 -68 -5 -327q1 -44 0 -91q-2 -38 0 -54q2 -24 25 -16q23 9 24 38q0 22 -1 153 q3 162 9 269q4 80 -2 226q-6 109 5 121q10 10 142 20q36 7 42 31q5 25 -48 20q-25 -2 -53 -7l-37 -5q-31 -4 -45 7q-21 15 -22 165q-2 157 31 206q16 24 64 19q47 -5 76 -33q18 -17 38 -63q14 -33 39 -34q23 -1 6 52t-53 91q-51 56 -140 45q-59 -12 -78 -54q-12 -36 -18 -68 q-22 -101 -13 -400zM891 1217q2 -104 1 -146q-28 -810 6 -961q20 -90 86 -106q56 -13 98 20q31 25 45 56q14 32 -8 35q-14 2 -37 -23q-28 -30 -41 -37q-34 -18 -53 -13q-16 5 -34 32q-28 43 -27 347q0 81 3 222q2 116 2 137q-2 49 4 279q5 232 5 246q-1 29 -24 37 q-24 9 -26 -16q-1 -16 0 -109z" />
<glyph horiz-adv-x="0" />
<glyph unicode="&#xd;" horiz-adv-x="1044" />
<glyph unicode=" "  horiz-adv-x="300" />
<glyph unicode="&#x09;" horiz-adv-x="300" />
<glyph unicode="&#xa0;" horiz-adv-x="300" />
<glyph unicode="!" horiz-adv-x="335" d="M103 64q2 31 24 54q10 11 45 11q34 0 48 -20q15 -22 15 -46q0 -64 -61 -63q-74 2 -71 64zM127 1558q0 31 18 46q18 14 44 14q36 0 36 -46q0 -39 -9 -193q-10 -154 -10 -292q0 -125 -4 -292q-2 -172 -2 -213l2 -92q0 -181 1 -180q-55 -50 -59 61q-1 39 12 500 q-7 282 -9 364q-2 84 -20 323z" />
<glyph unicode="&#x22;" horiz-adv-x="363" d="M61 1420q-1 55 31 57q22 2 33 -19q9 -17 5 -75q-7 -111 -10 -136q-13 -92 -27 -91q-28 3 -25 165q0 16 -4 50q-3 35 -3 49zM230 1420q0 55 30 57q22 2 34 -19q9 -17 6 -75q-8 -111 -11 -136q-12 -92 -26 -91q-28 3 -26 165q0 16 -3 50q-3 35 -4 49z" />
<glyph unicode="#" horiz-adv-x="1136" d="M85 634q9 20 94 20q179 -9 207 8q19 10 34 149q19 160 9 167q-14 12 -209 0q-92 -5 -95 28q-3 28 30 28q255 2 270 9q16 10 35 137q27 176 27 346q0 49 26 47q28 -3 27 -36q0 -23 -24 -240q-28 -236 -19 -246q7 -8 110 -8q105 0 121 15q11 9 43 245q33 243 33 245 q10 24 33 25q26 0 25 -36q0 -8 -16 -83q-19 -89 -29 -148q-36 -232 -24 -251q7 -10 114 -3q117 7 120 6q29 -7 29 -30q0 -31 -29 -34q1 1 -119 4q-107 2 -121 -6q-22 -17 -37 -161t-2 -159q17 -19 209 1q62 0 60 -33q-3 -32 -47 -32q-218 0 -223 -7q-4 -5 -37 -289 q-9 -81 -20 -235q-9 -123 -12 -135q-7 -20 -31 -14q-24 4 -27 30q-1 13 15 114q4 26 15 154q12 129 19 175q25 164 11 193q-8 16 -128 16q-99 0 -112 -17q-2 -4 -24 -255q-36 -408 -62 -416q-34 -11 -40 40q-2 5 37 273q40 353 29 362q-25 18 -231 -8q-31 0 -51 16 q-18 13 -13 29zM454 666q14 -9 99 -9q114 0 132 14q35 24 39 296q0 23 -41 27h-123q-54 0 -69 -19q-12 -14 -26 -137q-18 -166 -11 -172z" />
<glyph unicode="$" horiz-adv-x="540" d="M80 1q0 26 32 26q-19 0 51 -19q36 -10 66 -3v4l3 203q4 353 7 594q-17 36 -35 70q-101 197 -101 371q0 145 81 225q31 32 66 42q1 76 1 75q9 40 39 22q16 -10 18 -91q6 -1 11 -2q71 -14 90 -50q12 -22 -8 -33q-8 -5 -36 13q-32 22 -48 25q-4 1 -9 1q0 -93 -10 -241 q-1 -12 -6 -387q75 -146 61 -116q36 -77 77 -224q30 -119 30 -182q0 -117 -58 -244q-40 -86 -108 -114q0 -54 -2 -64q-10 -49 -32 -46q-25 4 -31 46v50q-34 -3 -68 1q-81 8 -81 48zM167 1256q0 -163 74 -330q4 342 5 380q2 89 3 150q-20 -13 -39 -34q-43 -43 -43 -166z M288 633q0 -4 5 -470q1 -71 1 -123q45 46 56 80q46 127 46 225q0 76 -36 194q-28 100 -71 184q0 -43 -1 -90z" />
<glyph unicode="%" horiz-adv-x="1034" d="M81 1012q3 -126 12 -164q17 -75 33 -99q33 -47 85 -53l4 -1q41 -2 77 25q22 16 43 54q25 45 42 119q7 28 23 137q13 135 4 259q-2 39 -24 110q-4 10 -5 15q-15 53 -46 80q-26 23 -69 26l-4 1q-45 3 -76 -19q-28 -20 -48 -67q-18 -42 -31 -119q-5 -25 -18 -166 q-3 -39 -2 -138zM138 1014q-2 74 10 189q25 273 108 268h1q34 -3 59 -47q8 -13 25 -81q9 -38 9 -98q0 -74 -2 -113l-4 -44q-3 -43 -18 -158q-8 -67 -40 -125q-32 -60 -71 -56q-34 2 -47 40q-8 18 -13 59q-4 18 -6 30q-8 47 -11 136zM198 7q4 19 87 234q156 396 158 402 q195 537 199 550q50 166 86 255q29 76 49 79q34 7 28 -32l-87 -247q-21 -60 -358 -986l-66 -182l-18 -45q-15 -43 -18 -49q-19 -36 -44 -32q-22 4 -16 53zM619 288q1 -127 9 -166q15 -74 31 -99q31 -48 84 -55h4q40 -3 77 23q22 16 44 53q26 45 45 119q8 28 26 136 q15 135 8 259q-2 39 -22 111q-3 11 -4 14q-15 54 -45 81q-26 24 -68 29h-6q-45 4 -76 -18q-27 -20 -49 -66q-19 -41 -33 -118q-4 -26 -20 -165q-4 -39 -5 -138zM676 289q-1 72 14 188q30 273 111 265h2q34 -3 58 -47q8 -13 23 -81q9 -39 8 -99q-1 -74 -4 -113l-5 -44 q-3 -41 -20 -158q-10 -66 -43 -124t-73 -55q-33 3 -46 42q-6 17 -12 59q-2 18 -4 30q-8 47 -9 137z" />
<glyph unicode="&#x26;" horiz-adv-x="913" d="M110 564q21 103 92 235q62 122 66 146q9 76 -1 320v180q0 108 64 129q68 22 114 -30q65 -73 43 -225q-10 -63 -85 -230q-76 -165 -77 -173q-3 -26 11 -68q20 -63 30 -118q34 -214 86 -345q86 -217 143 -210q58 7 62 202q1 38 -25 34q-62 -10 -65 20q-4 29 43 31 q64 3 124 9q31 3 66 11q31 6 44 6q48 2 38 -33q-4 -16 -36 -25q-7 -1 -73 -3q-60 -5 -65 -12q-6 -6 -16 -139q-7 -48 -33 -96q-22 -45 -22 -51q1 -15 48 -47q50 -36 87 -35q31 2 57 7q22 3 30 3q24 -1 24 -22q0 -33 -93 -32q-75 6 -173 79q-17 12 -87 -32q-87 -48 -167 -50 q-74 -1 -141 53q-70 57 -101 130q-62 146 -12 381zM141 411q0 -92 12 -146q13 -54 39 -104q56 -105 176 -105q41 0 107 24q65 28 67 61q1 9 -50 72q-63 76 -105 185q-54 137 -88 366q-8 46 -28 52q-37 10 -94 -186q-36 -126 -36 -219zM309 981q19 -5 90 223q44 137 43 194 q-2 131 -75 131q-56 0 -55 -98q1 -265 0 -247q-10 -201 -3 -203z" />
<glyph unicode="'" horiz-adv-x="193" d="M60 1420q0 55 30 57q22 2 34 -19q9 -17 6 -75q-8 -111 -11 -136q-12 -92 -26 -91q-28 3 -26 165q0 16 -3 50q-3 35 -4 49z" />
<glyph unicode="(" horiz-adv-x="333" d="M86 869q7 215 30 336q29 156 79 306q50 151 96 152q17 0 15 -31q-2 -30 -30 -82q-127 -223 -140 -602q-20 -575 108 -895q69 -169 69 -160q-1 -20 -15 -26q-13 -5 -25 2q-17 12 -44 75q-78 194 -116 487q-33 261 -27 438z" />
<glyph unicode=")" horiz-adv-x="333" d="M20 -107q0 -9 69 160q128 320 108 895q-14 379 -140 602q-29 52 -31 82q-2 31 16 31q46 -1 96 -152q50 -150 79 -306q22 -121 30 -336q6 -177 -28 -438q-38 -293 -116 -487q-26 -63 -43 -75q-13 -7 -25 -2q-14 6 -15 26z" />
<glyph unicode="*" horiz-adv-x="818" d="M71 1244q-10 -16 6 -40q5 -7 31 -8q171 9 181 -4q6 -6 -70 -155q-42 -89 6 -86q13 0 50 95q43 120 57 119q9 2 90 -158q21 -40 27 -42q33 -3 29 27l-46 83q-61 104 -56 115q0 11 177 -1q79 1 53 39q-11 5 -102 4l-69 2q-64 5 -59 10q-4 4 76 137q18 31 11 63q-8 13 -20 9 q-23 -12 -58 -93q-46 -103 -51 -97q-7 1 -71 140q-14 27 -24 41q-21 22 -42 -1q-13 -17 48 -99l40 -64q16 -31 10 -39q-4 -9 -163 12q-50 6 -61 -9z" />
<glyph unicode="+" horiz-adv-x="693" d="M69 643q-9 -11 4 -23q15 -23 92 -23q139 6 141 -2q6 2 2 -173q2 -40 11 -73q12 -46 33 -24q4 4 4 144q-9 117 2 129q9 5 178 3q97 2 67 36q-14 23 -113 17q-32 -2 -95 -3q-25 0 -33 10q-3 12 -1 199q-1 64 -13 71q-10 12 -22 -1q-25 -22 -19 -137q6 -140 -6 -142l-159 4 q-66 4 -73 -12z" />
<glyph unicode="," horiz-adv-x="224" d="M45 -181q-5 8 23 63q34 63 37 98q4 30 -27 77q-24 36 2 72q11 17 42 18q35 0 51 -30q11 -20 8 -87q-4 -64 -41 -130q-17 -32 -51 -63q-35 -32 -44 -18z" />
<glyph unicode="-" horiz-adv-x="634" d="M71 636q10 13 96 11q169 -3 242 -1q103 4 123 -11q42 -41 -107 -43q-15 0 -107 -3q-88 -4 -122 -4q-100 0 -119 18q-17 19 -6 33z" />
<glyph unicode="." horiz-adv-x="212" d="M43 59q2 30 24 53q9 10 43 10q32 0 47 -20q15 -21 15 -45q0 -62 -61 -61q-71 2 -68 63z" />
<glyph unicode="/" horiz-adv-x="476" d="M21 -7q1 19 59 236q111 403 113 409q132 542 135 557q31 167 56 256q21 77 40 83q32 10 32 -29q0 1 -60 -250q-15 -66 -245 -997l-45 -184l-12 -45q-11 -44 -14 -51q-14 -36 -39 -35q-21 1 -20 50z" />
<glyph unicode="0" horiz-adv-x="567" d="M80 616q0 87 5 220q5 140 5 155q1 95 43 295q12 59 47 111q46 68 104 68q81 0 121 -81q46 -90 56 -223q2 -27 16 -161q9 -92 10 -139v-246q0 -87 -23 -239q-29 -200 -66 -282q-45 -102 -126 -93q-72 8 -111 83q-81 158 -81 532zM138 840q-7 -142 2 -265q17 -248 36 -347 q34 -182 101 -182q63 0 91 102q27 105 32 179q2 38 11 122q8 73 8 110q3 207 3 233q-2 147 -13 312q-13 184 -36 244q-14 39 -45 63q-39 29 -76 7q-69 -42 -86 -169q-24 -179 -21 -250q1 -7 -7 -159z" />
<glyph unicode="1" horiz-adv-x="485" d="M94 31q4 14 26 16q7 1 20 1q16 -1 21 -1q73 3 80 11q10 11 10 477q0 514 14 748q6 102 -1 114q-6 10 -65 -69q-64 -86 -81 -88q-38 -4 -21 39q11 27 80 103q73 80 98 81q34 2 42 -25q13 -39 -5 -261q-7 -83 -11 -520q-4 -282 -2 -350q5 -254 -2 -245q9 -12 52 -11 q56 0 56 -24q0 -27 -42 -27l-233 2q-11 0 -24 6q-17 9 -12 23z" />
<glyph unicode="2" horiz-adv-x="522" d="M82 41q3 31 105 235q80 174 151 456q46 184 46 420q0 137 -30 211q-30 73 -81 62q-69 -15 -80 -91q-10 -91 -30 -91q-25 0 -25 35q0 22 19 89q8 29 35 59q36 40 79 40q71 0 111 -59q35 -52 49 -244q11 -157 -34 -392q-44 -229 -110 -382q-142 -329 -139 -334 q9 -10 129 -5q135 7 137 6q28 -3 27 -27q0 -16 -22 -26q-12 -6 -289 0q-17 0 -31 9q-19 11 -17 29z" />
<glyph unicode="3" horiz-adv-x="497" d="M88 93q7 16 25 10q-3 1 39 -34q37 -32 60 -32q40 -1 89 63q52 69 57 146q17 242 -5 362q-24 129 -81 168q-61 42 -60 37q-1 7 32 48q39 48 99 193q46 112 11 262q-10 41 -33 70q-26 32 -60 30q-59 -5 -93 -87q-36 -86 -32 -84q-30 -18 -30 20q0 63 50 134q44 63 97 64 q68 0 102 -40q31 -37 45 -154q17 -136 -18 -236q-3 -10 -52 -106q-44 -87 -43 -96q1 -6 30 -35q33 -33 48 -62q34 -71 41 -186q6 -97 6 -189q1 -116 -29 -209q-20 -65 -67 -108q-46 -42 -91 -42q-60 0 -103 38q-42 37 -34 55z" />
<glyph unicode="4" horiz-adv-x="512" d="M88 403q-8 20 16 204q25 395 32 479q1 68 13 331q1 47 25 46q28 -1 27 -34q-7 -83 -7 -137q0 -75 -8 -184q-34 -461 -42 -521q-5 -36 -13 -119q-1 -31 17 -37q14 -6 63 -4q53 1 60 11q2 3 2 229q-1 102 1 148q1 14 9 23q8 8 16 6q20 -3 25 -20q2 -8 -2 -107 q-5 -117 -4 -154q0 -122 8 -127q5 -4 62 1q16 2 30 -6q13 -7 13 -18q1 -23 -34 -24q-9 0 -28 1q-17 2 -22 1q-23 -3 -25 -41q-1 -18 -1 -132q0 -199 1 -197q-5 -21 -28 -21q-26 0 -27 23q0 13 7 237q5 126 -11 125q-21 2 -114 0q-54 0 -61 18z" />
<glyph unicode="5" horiz-adv-x="473" d="M82 82q2 24 24 19q3 0 38 -34q34 -31 61 -29q46 4 89 63q34 48 40 146q10 160 3 282q-7 130 -24 189q-14 46 -25 61q-15 22 -43 19q-40 -4 -109 -9q-36 -3 -43 40q0 4 2 103q2 109 2 129q0 9 -3 100q-2 80 -1 125q2 44 1 102q0 47 1 51q3 17 19 22h212q56 0 57 -22 q2 -23 -24 -25q-35 1 -107 8q-92 7 -101 -3q-12 -12 -14 -291q-1 -279 10 -288q5 -4 84 0q73 5 106 -46q41 -61 51 -368q5 -160 -13 -241q-15 -71 -61 -124q-53 -61 -121 -61q-51 0 -85 34q-28 27 -26 48z" />
<glyph unicode="6" horiz-adv-x="455" d="M85 768q3 52 4 137q1 63 5 105q5 48 10 125q5 69 9 105q12 113 52 182q25 42 80 38q53 -4 83 -42q41 -54 43 -132q1 -29 -12 -41q-11 -10 -23 -2q-5 3 -9 55q-4 57 -20 81q-23 34 -51 43q-32 10 -55 -18q-32 -37 -47 -170q-42 -372 -17 -398q1 -1 55 9q57 10 97 -16 q43 -29 58 -75q4 -13 14 -88q5 -39 11 -176q2 -45 3 -212q0 -159 -54 -229q-40 -52 -93 -49q-67 4 -99 78q-23 52 -35 316q-14 285 -9 374zM133 719q-16 -263 21 -525q15 -106 26 -126q27 -48 69 -34q70 23 77 151q11 229 5 336q-9 139 -17 185q-9 48 -39 76q-28 26 -85 13 q-54 -13 -57 -76z" />
<glyph unicode="7" horiz-adv-x="427" d="M80 1440q0 13 19 22q57 27 213 1q35 -6 31 -34q-1 -4 -6 -30q-5 -24 -6 -40q-1 -10 -7 -52q-5 -38 -8 -66q-12 -154 -73 -585q-68 -484 -81 -569q-14 -85 -32 -87q-26 -1 -29 16q-3 6 18 94q0 1 15 63q12 53 17 94q0 1 31 214q47 329 50 353q8 78 22 244q12 142 15 161 q25 156 21 176q-3 19 -71 15q-11 -1 -60 -5q-41 -4 -50 -4q-29 1 -29 19z" />
<glyph unicode="8" horiz-adv-x="449" d="M85 255q14 259 86 486q7 23 17 45q15 41 16 49q0 6 -25 93q-78 288 -72 386q4 85 54 129q28 25 81 20q34 -3 56 -20q21 -16 31 -42q20 -52 17 -116q-7 -115 -56 -315q-37 -123 -35 -130q1 -6 20 -69q93 -343 94 -587q0 -94 -53 -147q-40 -39 -103 -37q-28 2 -63 34 q-31 30 -41 57q-29 76 -24 164zM144 240q-2 -52 17 -103q20 -55 49 -62q49 -13 77 29q26 37 29 95q4 85 -51 468q-13 78 -32 78q-11 1 -30 -54q-22 -61 -35 -144q-21 -144 -24 -307zM158 1309q-4 -67 16 -189q33 -221 57 -224q11 -1 37 148q26 138 27 181q5 93 -2 119 q-12 42 -39 58q-20 13 -47 1q-46 -19 -49 -94z" />
<glyph unicode="9" horiz-adv-x="482" d="M80 1126q0 147 46 248q17 36 43 59q28 23 58 29q37 6 73 -7q34 -12 58 -57q23 -43 23 -291v-284l1 -73l-9 -538q6 -99 -9 -129q-16 -34 -43 -56q-32 -27 -87 -27q-34 0 -92 41q-32 23 -34 42q-1 13 8 19t22 0q4 -2 18 -15q17 -14 28 -22q41 -27 77 -16q70 23 70 113 l12 476q0 20 -3 83q-4 64 -29 69q-92 17 -132 38q-43 24 -67 72q-32 65 -32 226zM130 1145q0 -150 7 -182q16 -71 73 -99q20 -9 62 -19q46 -10 56 -4q4 4 14 454q3 54 -27 100q-20 30 -62 30q-43 0 -68 -32q-25 -33 -36 -84q-19 -94 -19 -164z" />
<glyph unicode=":" horiz-adv-x="253" d="M63 132q2 31 24 53q10 11 43 11t48 -20q15 -22 15 -46q0 -62 -61 -61q-72 2 -69 63zM63 691q2 31 24 54q10 10 43 10t48 -19q15 -22 15 -46q0 -63 -61 -62q-72 2 -69 63z" />
<glyph unicode=";" horiz-adv-x="265" d="M65 -116q-5 8 23 63q34 63 38 98q3 31 -28 78q-24 37 2 74q11 15 42 16q34 0 51 -30q12 -21 8 -87q-4 -64 -40 -130q-18 -34 -52 -64q-35 -32 -44 -18zM72 695q2 31 23 53q10 10 44 10q33 0 46 -19q16 -22 16 -46q0 -62 -61 -61q-72 2 -68 63z" />
<glyph unicode="&#x3c;" horiz-adv-x="482" d="M70 679q-10 -23 181 -225l66 -82l17 -20q16 -20 19 -23q18 -16 38 -13q31 5 13 51q-5 9 -107 129q-168 175 -162 179q-7 29 163 230q63 72 91 114q24 35 15 43q-27 21 -51 5l-86 -113q-201 -248 -197 -275z" />
<glyph unicode="=" horiz-adv-x="715" d="M103 794q11 11 104 9q186 -5 267 -2q114 4 134 -13q47 -39 -117 -40q-15 0 -117 -3q-96 -2 -133 -2q-111 0 -130 19q-20 18 -8 32zM107 564q-47 39 116 39q16 1 118 3q96 3 133 3q111 0 131 -19q19 -18 7 -32q-11 -11 -104 -9q-185 5 -267 2q-114 -4 -134 13z" />
<glyph unicode="&#x3e;" horiz-adv-x="482" d="M78 367q-18 -46 13 -51q20 -3 38 13q3 3 19 23l17 20l66 82q191 202 181 225q4 27 -197 275l-86 113q-24 16 -51 -5q-9 -8 15 -43q28 -42 91 -114q170 -201 163 -230q6 -4 -162 -179q-102 -120 -107 -129z" />
<glyph unicode="?" horiz-adv-x="563" d="M83 1338q5 65 102 132q39 28 102 34q80 8 123 -39q73 -73 73 -252q0 -95 -89 -281q-69 -145 -73 -230q-5 -90 -5 -186q0 -49 1 -112v-63q0 -46 -29 -61q-29 -14 -29 45v175q1 124 7 215q6 115 53 207q101 201 106 275q9 146 -60 216q-53 67 -157 -1q-31 -19 -58 -71 q-25 -46 -33 -47q-37 -8 -34 44zM222 38q2 29 23 51q9 10 41 10t44 -18q15 -22 15 -45q0 -59 -58 -58q-69 2 -65 60z" />
<glyph unicode="@" horiz-adv-x="986" d="M90 781q0 399 95 579q96 182 270 170q169 -11 268 -111q104 -108 132 -222q25 -103 34 -246q7 -151 7 -292q0 -395 -137 -391q-29 1 -79 78q-43 65 -51 46q-78 -167 -210 -147q-185 27 -148 505q25 309 67 384q59 101 145 100q81 0 123 -76q68 -125 73 -502 q1 -57 -7 -125q-6 -51 -2 -63q9 -36 41 -87q41 -63 67 -51q43 18 60 360q21 411 -92 611q-100 176 -295 176q-141 0 -209 -131q-57 -109 -80 -245q-26 -158 -29 -337q-3 -125 27 -343q19 -131 51 -218q79 -208 222 -213q174 -6 322 135q36 37 43 43q34 18 25 -25 q-7 -37 -74 -90q-63 -50 -126 -74q-114 -44 -190 -38q-222 17 -291 294q-51 204 -52 546zM327 611q12 -307 120 -311q107 -3 160 198q9 32 13 256q2 126 -19 255q-17 88 -32 118q-28 55 -90 53q-123 -4 -139 -307q-17 -168 -13 -262z" />
<glyph unicode="A" horiz-adv-x="656" d="M89 22q-2 3 -2 13q0 47 34 250q7 45 32 243q23 191 40 284q7 44 54 354q12 84 19 110q8 34 21 80q31 110 56 110q29 0 50 -61q39 -113 52 -193q4 -21 28 -153q18 -100 20 -125q2 -22 12 -110q13 -114 21 -189q31 -296 50 -571v-20q0 -19 -6 -29q-10 -16 -29 -18 q-6 -1 -11 -1q-29 0 -27 20q11 67 11 135q0 105 -26 211q0 14 -103 32q-37 7 -69 7q-58 0 -103 -22q-21 -10 -33 -70q-28 -129 -31 -204q-1 -18 -1 -42q1 -30 1 -34q-1 -31 -12 -31q-34 0 -48 24zM192 463q2 -19 17 -21q49 -1 89 -1q181 0 181 22v25q0 195 -43 516 q-47 349 -86 349h-3q-10 -2 -40 -177q-3 -19 -24 -122q-22 -107 -35 -177q-13 -75 -30 -204q-14 -123 -19 -149q-7 -34 -7 -53v-8z" />
<glyph unicode="B" horiz-adv-x="586" d="M106 16q-1 5 -1 31q0 95 17 474l-13 810q0 85 4 104q9 34 46 34q131 0 200 -84q69 -85 69 -207v-20q-5 -118 -71 -228q-66 -86 -66 -96q0 -1 1 -1q7 -8 39 -31q49 -30 77 -72q38 -47 66 -163q23 -95 23 -176q0 -33 -4 -64q-20 -143 -113 -252q-43 -52 -84 -66 q-25 -8 -99 -8q-63 0 -63 -1h1q-25 2 -29 16zM160 61q37 -17 70 -17q70 0 128 72q82 103 90 226q2 25 2 48q0 124 -44 229q-46 111 -123 164q-30 20 -70 22q-39 3 -38 -14v-33q0 -105 -13 -399q-7 -159 -7 -233q0 -63 5 -65zM168 1321q-2 -147 -2 -248q0 -216 10 -222 q6 -4 15 -4q13 0 31 8q41 17 77 67q39 61 58 118q19 58 21 129v8q0 102 -49 166q-52 70 -126 70q-23 0 -30 -25q-5 -18 -5 -67z" />
<glyph unicode="C" horiz-adv-x="608" d="M82 523q-1 36 -1 78q0 63 2 138q3 148 3 153q0 291 72 461q26 60 89 95q41 23 85 23q35 0 72 -15q91 -37 115 -116q9 -31 9 -51q0 -22 -10 -32q-9 -9 -24 -2q-16 7 -15 23v6q0 45 -30 78q-40 43 -117 47h-10q-96 0 -135 -110q-43 -123 -50 -209q-8 -93 -8 -321 q0 -42 6 -147q8 -145 10 -206q8 -200 62 -283q48 -71 111 -71q36 0 78 23q43 24 75 66q30 40 31 71q6 29 31 24q12 -2 23 -10q6 -9 6 -24q0 -14 -5 -32q-10 -40 -40 -79q-76 -101 -198 -101q-114 0 -173 119q-57 117 -64 404z" />
<glyph unicode="D" horiz-adv-x="605" d="M101 1446q0 27 73 27q12 0 25 -1q102 -1 177 -72q53 -51 101 -183q68 -182 68 -523q0 -172 -17 -275q-36 -227 -129 -346q-52 -68 -169 -72q-17 -1 -32 -1q-70 0 -83 16q-6 3 -6 133q0 152 8 476q-1 22 -3 200q-2 149 -2 236q1 26 1 57q0 77 -7 186q-5 97 -5 132v10z M158 353q-1 -44 -1 -81q0 -186 17 -198q34 -17 66 -18q57 0 108 55q67 70 109 207q47 151 47 367q0 61 -4 128q-15 286 -92 445q-79 164 -205 164q-39 -1 -41 -22l-4 -335q0 -33 7 -136q2 -97 4 -189q0 -48 -11 -387z" />
<glyph unicode="E" horiz-adv-x="508" d="M109 1344q-1 17 -1 32q0 92 47 94q56 2 93.5 2t56.5 -2h33q28 0 43 -2q53 -4 43 -27q-6 -15 -95 -15q-20 0 -44 1h-27q-99 0 -96 -27l7 -297q10 -243 16 -254q-1 2 71 2h56q16 -1 31 -30q14 -29 -7 -28q-46 2 -73 2q-20 0 -28 -1q-30 -5 -36 -7q-16 -7 -16 -23 q-15 -539 -15 -583q1 -111 19 -126q11 -8 73 -8q26 0 61 1q26 2 46 2q87 0 87 -34q3 -17 -112 -17q-48 0 -116 3q-40 -1 -64 -1q-32 0 -35 2q-3 5 -4 119v28q0 39 1 124q2 145 2 193q-3 701 -17 877z" />
<glyph unicode="F" horiz-adv-x="495" d="M109 1344q-1 17 -1 32q0 92 47 94q56 2 93.5 2t56.5 -2q7 -1 30 0q26 0 39 -1q50 -3 50 -29q0 -18 -129 -18q-130 -1 -127 -31l1 -289q10 -242 16 -253q2 -3 29 -3q32 0 98 4q32 2 34 -28t-22 -29q-39 2 -63 2q-18 0 -26 -1q-30 -5 -37 -8q-15 -6 -15 -22 q-15 -540 -15 -584q0 -23 2 -85q1 -59 1 -68q0 -24 -19 -27h-4q-15 0 -23 13q-3 4 -6 107q0 13 3 147q4 144 4 199q-3 701 -17 878z" />
<glyph unicode="G" horiz-adv-x="672" d="M108 1056q17 258 111 356q59 61 134 61q42 0 90 -19q70 -28 86 -77q13 -44 -19 -38q-10 2 -26 21q-19 24 -45 38q-51 28 -92 28q-126 0 -173 -256q-14 -84 -14 -375q-6 -149 -6 -241q0 -35 1 -61q3 -114 11 -196q10 -112 51 -178q29 -47 70 -58q17 -4 85 -4q49 0 95 22 q49 24 64 59q12 29 12 107q0 35 -2 79q-3 63 -22 63q-18 0 -77 -7q-44 0 -44 33q0 17 57 30q40 8 92 8q55 0 55 -77v-344q0 -30 -25 -30q-38 0 -38 50q-1 14 -17 2q-28 -22 -34 -24q-51 -21 -98 -23h-20q-129 0 -179 48q-61 57 -79 209q-17 187 -17 400q0 187 13 394z" />
<glyph unicode="H" horiz-adv-x="569" d="M109 154q0 20 -0.5 53t0.5 79q0 54 0.5 89t-0.5 51q-4 393 -4 640q0 275 5 370q2 30 24 32t24 -24q2 -52 2 -130q-8 -206 -8 -320q0 -133 11 -142q18 -13 123 -15q11 0 21 -1q89 0 100 17q7 10 7 201q0 143 -4 387q0 28 21 28q24 0 24 -73q0 2 -3 -69q-3 -66 -3 -146 q0 -202 14 -622q6 -197 6 -511q0 -21 -7 -33q-9 -15 -27 -15q-27 0 -27 42q5 358 5 546t-5 204q-5 13 -63 13h-24q-150 0 -160 -23q-1 -3 -1 -20q0 -34 4 -127q5 -100 5 -169q0 -43 -2 -74q-3 -48 -3 -363q0 -29 -19 -29q-25 0 -32 22q1 -2 -4 132z" />
<glyph unicode="I" horiz-adv-x="395" d="M62 24q0 28 37 29q21 -1 49 0q18 1 22 15q3 8 3 42q2 101 2 134q0 24 2 79q2 49 2 77q0 -3 1 130v44q0 87 -3 161q-4 91 -6 205q-2 136 -2 140l2 203q0 132 -5 138q-1 1 -10 1q-19 0 -74 -4q-12 -1 -17 12t-1 26q3 10 126 11q18 0 59 1h46q36 0 36 -18q0 -27 -20 -28 q-19 -2 -32 0q-48 0 -53 -7q-13 -16 -13 -188q0 -389 6 -467q4 -69 4 -597q-3 -28 -3 -48q0 -43 13 -54q10 -9 67 -11q34 -2 34 -26v-1q0 -23 -42 -23h-149q-81 0 -81 24z" />
<glyph unicode="J" horiz-adv-x="453" d="M106 63q48 16 80 45q74 66 74 226q0 29 -1 112q0 85 -1 143q0 236 -6 322q-33 487 -53 498q-10 5 -39 5q-24 0 -59 -3q-11 0 -19 9q-7 9 -7 20q0 22 64 26q27 2 196 2q13 0 22 -9t9 -20q0 -9 -5 -18q-6 -12 -53 -10q-48 2 -52 -2q-2 -3 -2 -17q0 -19 4 -62q0 -9 16 -236 q1 -23 12 -125q10 -104 17 -201q4 -68 11 -364q1 -36 1 -66q0 -106 -11 -143q-20 -63 -65 -111q-79 -84 -127 -84q-40 0 -40 34q0 18 34 29z" />
<glyph unicode="K" horiz-adv-x="605" d="M100 95q0 22 3 106q4 90 5 175q1 65 4 185q4 111 4 130q0 22 -8 376q-8 350 -8 364q0 28 30 38q8 2 14 2q15 0 23 -12q1 -2 1 -216q-20 -217 -20 -309q0 -67 11 -67q20 0 124 210q28 56 64 132q38 77 51 103q77 156 101 157q30 0 30 -31q-2 -13 -28 -56q-31 -54 -37 -65 q-8 -18 -38 -71q-31 -53 -37 -67q-164 -356 -172 -356v1q1 -33 126 -369q43 -113 119 -265q64 -126 67 -144q1 -7 1 -13q0 -28 -24 -33h-2q-16 0 -37 40q-78 154 -153 360q-138 379 -147 379q-12 0 -12 -54v-17q1 -15 4 -63q2 -39 2 -58q-2 -294 -8 -371q-1 -23 -1 -67v-70 q-1 -79 -23 -79q-29 0 -29 95z" />
<glyph unicode="L" horiz-adv-x="495" d="M109 130q7 81 10 880q0 55 -3 198q-3 133 -3 147q4 102 7 106q8 13 22 13h4q19 -3 19 -27q0 -10 -1 -67q-1 -64 -2 -86q0 -19 7 -195q8 -201 10 -299q1 -40 1 -83q0 -152 -11 -345l-1 -289q-3 -30 127 -31q129 0 129 -18q0 -26 -50 -29q-13 -1 -39 -1q-23 1 -30 0 q-19 -2 -56.5 -2t-93.5 2q-47 3 -47 94q0 15 1 32z" />
<glyph unicode="M" horiz-adv-x="728" d="M80 799l6 484q0 167 -2 167v-1q3 20 25 20t28 -13q1 -3 31 -92q34 -98 52 -145q77 -197 99 -261q22 -63 30 -80q16 -31 25 -13q42 77 73 162q69 190 77 216q9 30 32 116q20 73 26 90q9 20 31 20h2q23 -1 29 -17q2 -4 2 -21q0 -26 -4 -82q-8 -116 -8 -149q0 -41 3 -160 q3 -154 4 -246q4 -318 4 -348v-174v-135q0 -115 -9 -126t-22 -11h-4q-17 3 -24 21v141l4 639q2 133 2 200q0 45 -1 60v-2q1 0 -1 95q0 62 -9 56q-20 -11 -92 -202q-65 -169 -64 -169v1q-40 -92 -62 -92q-28 0 -120 255q-76 213 -96 213q-3 0 -5 -6q-10 -39 -10 -379l5 -610 l10 -170q0 -50 -31 -50q-22 0 -29 33q-5 23 -5 84l6 291z" />
<glyph unicode="N" horiz-adv-x="662" d="M100 95l3 685v251q2 316 2 359q0 81 32 82h1q28 0 57 -104q2 -8 55 -231q53 -226 62 -259q7 -27 34 -120q28 -101 45 -163q19 -68 43 -162q25 -96 27 -103q2 -8 12 -49q9 -35 15 -54q18 -62 23 -47q3 7 3 124l-9 618l-5 297q-2 185 -2 210q1 40 26 40q32 0 32 -67 q0 -58 -3 -742q0 -32 5 -206v-32v-49q-1 -65 -1 -85q0 -15 3 -76q1 -31 1 -52v-19q-5 -83 -8 -95q-10 -46 -38 -46q-20 0 -54 120q-187 672 -201 742q-70 347 -73 358q-8 40 -20 72q-14 38 -17 12q-1 -7 -1 -19q0 -25 3 -71q5 -82 5 -106v-526q0 -160 2 -293q3 -178 3 -238 q0 -30 -1 -31q-10 -17 -29 -19q-19 -1 -25 10q-7 13 -7 84z" />
<glyph unicode="O" horiz-adv-x="626" d="M82 792q7 255 11 302q13 140 36 215q25 83 62 120q38 39 102 39h6q59 -1 97 -36q45 -41 71 -131q48 -165 54 -220q20 -180 20 -375q0 -47 -1 -95q-17 -207 -23 -249q-20 -134 -53 -216q-28 -68 -56 -97q-48 -49 -105 -49h-4q-71 3 -120 77q-25 40 -56 169q-16 68 -32 296 q-9 150 -9 225v25zM139 896q-3 -105 -2 -183q0 -105 4 -164q13 -166 30 -252q30 -146 36 -164q30 -79 92 -81h1q71 0 120 124q44 116 52 242q13 216 13 292q0 25 1 81v19q0 70 -6 189q-6 112 -25 184q-32 123 -46 149q-48 86 -110 88h-2q-144 0 -158 -524z" />
<glyph unicode="P" horiz-adv-x="492" d="M104 1316q-2 24 -2 49q0 37 4 73q3 30 54 30q63 0 118 -32q45 -26 85 -81q50 -90 54 -171q1 -13 0 -27q0 -77 -24 -157q-15 -50 -63 -105q-42 -49 -73 -63q-101 -48 -98 -57q0 -18 3 -587q3 -92 3 -135q0 -34 -2 -37q-9 -16 -26 -16q-5 0 -10 1q-21 6 -21 66l4 341 l-1 401q0 163 -3 257q-1 36 -1 74v39q1 62 1 68q-2 46 -2 69zM156 1116q1 -246 9 -251q2 -1 6 -1q11 0 38 11q38 16 65 37q81 68 90 186q1 17 1 33q0 80 -32 155q-29 69 -101 96q-20 7 -34 7q-22 0 -34 -16q-8 -10 -8 -257z" />
<glyph unicode="Q" horiz-adv-x="638" d="M82 789v-25q0 -74 9 -225q16 -229 32 -296q31 -129 56 -169q49 -74 120 -77q4 0 24 3q16 3 20 0q3 -1 8 -69q5 -67 23 -108q19 -45 51 -67q22 -15 70 -19h5q22 0 38 7q20 9 20 26q0 25 -68 25q-44 0 -55 14q-16 21 -26 56q-10 37 -13 74q-6 64 -6 79q0 10 18 28 q28 29 56 97q33 83 53 216q6 42 22 249q2 54 2 107q0 189 -20 363q-6 54 -54 220q-26 90 -71 131q-38 35 -97 36h-6q-64 0 -102 -39q-37 -37 -62 -120q-23 -75 -36 -215q-4 -46 -11 -302zM139 893q14 524 158 524h2q62 -2 110 -88q13 -26 46 -149q19 -72 25 -184 q6 -135 6 -208q-1 -56 -1 -81q0 -75 -13 -292q-7 -107 -54 -229q-48 -124 -120 -124h-1q-65 2 -90 68q-6 18 -36 164q-18 86 -30 252q-5 59 -5 164q0 78 3 183z" />
<glyph unicode="R" horiz-adv-x="502" d="M104 1316q0 -23 2 -69q0 -6 -1 -68v-39q0 -38 1 -74q6 -166 6 -250l6 -405l-12 -344q0 -60 21 -66q5 -1 10 -1q17 0 26 16q4 7 5 141q-10 423 -10 555q0 62 2 61h1q9 0 46 -172q40 -134 49 -177q22 -97 50 -184q11 -34 33 -113q19 -69 24 -81q18 -46 32 -46q30 0 34 20 q1 3 1 7q0 13 -8 36q-122 382 -127 399q-89 331 -87 334q-3 10 53 40q36 22 71 62q46 52 61 102q25 80 25 157q0 13 -1 27q-4 81 -54 171q-40 55 -85 81q-55 32 -118 32q-51 0 -54 -30q-4 -37 -4 -73q0 -25 2 -49zM151 1129v83q0 170 7 178q11 17 34 17q15 0 36 -8 q75 -28 106 -98q34 -76 34 -158q0 -18 -2 -36q-6 -80 -35 -126q-15 -25 -57 -59q-27 -21 -66 -38q-29 -12 -42 -12q-4 0 -6 1q-8 6 -9 256z" />
<glyph unicode="S" horiz-adv-x="516" d="M80 47q0 25 29 25q7 0 21 -7q18 -9 29 -12q20 -5 56 2q41 9 61 29q44 44 56 77q41 116 41 205q0 67 -32 174q-27 94 -67 172q-40 79 -78 154q-94 184 -94 348q0 136 75 211q25 26 70 38q24 7 41 6q9 0 16 -1q66 -14 85 -48q10 -20 -8 -30q-8 -4 -33 12q-32 20 -46 24 q-7 1 -14 1q-39 0 -85 -48q-37 -38 -37 -149q0 -168 87 -340q29 -57 56 -109q19 -35 26 -52q33 -71 73 -209q28 -111 28 -171q0 -109 -55 -228q-22 -47 -68 -82t-89 -38q-14 -1 -27 -1l-41 2q-29 3 -52 16q-24 13 -24 29z" />
<glyph unicode="T" horiz-adv-x="517" d="M38 1455q3 10 214 12q13 0 86 1q98 1 109 1q36 0 36 -18q0 -27 -20 -29q-10 -1 -40.5 -1t-81.5 1q-36 0 -45 -7q-21 -14 -21 -187q0 -389 6 -468q6 -95 6 -306q0 -117 -2 -269v-11q0 -23 3 -57q4 -54 4 -56q2 -48 -10 -57q-5 -4 -18 -4q-9 0 -21 2q-13 2 -11 44l3 66v-1 q2 99 2 134q0 23 2 78q2 49 2 78q0 -3 1 130v44q0 87 -3 160q-4 91 -6 205q-2 137 -2 140l2 203q0 123 -7 131q-5 7 -66 7q-40 0 -104 -3q-12 -1 -17 12q-3 7 -3 14q0 5 2 11z" />
<glyph unicode="U" horiz-adv-x="633" d="M90 481v456q0 126 2 270q0 42 1 90q1 42 1 46q0 13 -2 47q-2 35 -2 47q0 16 11 26q9 9 18 8q30 -2 33 -38v1q-1 0 -1 -107q-8 -392 -8 -554q0 -68 1 -95q13 -289 13 -292q14 -123 26 -168q21 -77 57 -111q49 -48 96 -48h5q60 4 87 40q47 63 60 195q2 27 2 81.5t-2 137.5 l-1 118q-4 135 -4 217q0 33 1 57v230q-8 273 -9 295q-1 16 9 30q10 13 22 13q25 0 32 -31q4 -18 4 -97q0 -32 -1 -74q-1 -68 -4 -315q2 -361 2 -379v-255v-16q0 -98 -34 -181q-29 -72 -60 -94q-43 -31 -119 -31q-70 0 -126 62q-49 55 -78 151q-28 92 -32 268z" />
<glyph unicode="V" horiz-adv-x="539" d="M31 1438q0 14 12 23q13 9 25 4q29 -11 43 -61q5 -15 18 -128q2 -13 5 -51q4 -52 6 -83q12 -133 35 -294q84 -585 104 -624q6 -11 16 36q9 40 12 76q0 3 23 139q24 147 39 282q29 250 50 480q14 178 18 194q2 18 13 29q9 8 18 8h4q27 -4 33 -26q1 -4 1 -11q0 -27 -13 -102 q-44 -253 -88 -668t-87 -624q-8 -37 -38 -37q-21 0 -31 22q1 -1 -82 547q-21 139 -53 368q-26 186 -37 254q-13 76 -31 165q-15 78 -15 82z" />
<glyph unicode="W" horiz-adv-x="768" d="M103 1023q-1 58 -1 101.5t1 73.5v135q0 114 9 126q9 11 22 11h4q17 -3 24 -21v-141l-5 -639q-1 -110 -1 -175.5t1 -84.5v2l5 -104q0 -74 15 -76h1q19 0 69 304q42 237 59 342q19 101 25 122q24 93 61 93q35 -4 72 -216q55 -352 107 -515q26 -125 38 -125h1q8 27 8 207 q0 82 -2 195l-5 611l-10 170q0 50 31 50q22 0 29 -33q5 -23 5 -84l-6 -291l8 -390l-6 -484q3 -99 3 -140q0 -20 -1 -26q-3 -20 -25 -20t-28 13q-24 53 -77 233q-12 40 -34 155q-23 83 -35 146q-57 406 -83 406h-1q-44 -124 -83 -444q-23 -161 -65 -296q-32 -103 -67 -193 q-9 -20 -31 -20h-2q-23 1 -29 17q-2 4 -2 21q0 26 4 82q5 89 5 130v19v160q-3 154 -4 246q-4 318 -4 347z" />
<glyph unicode="X" horiz-adv-x="496" d="M73 26q6 46 26 117q6 21 17 97q15 93 26 149q13 65 24 145q12 93 13 99q30 172 30 191q0 4 -53 265q-13 63 -59 252q-21 86 -21 100q0 39 41 25q23 -8 75 -323q36 -225 55 -264l1 -1q11 0 55 243q53 308 51 301q12 48 37 48q16 0 23 -26q7 -23 0 -40q-23 -56 -65 -271 q-59 -308 -59 -320q3 -98 126 -701q10 -50 10 -81q0 -30 -22 -30q-34 0 -34 24q0 -13 -47 319q-59 417 -75 417q-2 0 -3 -4v1q2 0 -64 -376q-16 -92 -28 -189q-11 -95 -11 -91q-14 -80 -22 -91t-25 -11h-3q-19 2 -19 21v5z" />
<glyph unicode="Y" horiz-adv-x="494" d="M74 1443q7 34 41 23q25 -9 76 -325q42 -259 50 -275q1 -2 2 -2q14 0 60 256q53 309 51 301q12 48 37 48q24 0 24 -40q0 -15 -4 -37q-2 -17 -30 -135q-30 -127 -40 -178q-9 -48 -40 -171q-29 -114 -33 -138q-6 -39 -6 -193q0 -68 1 -159q1 -43 5 -217q4 -166 4 -170 q0 -31 -22 -31q-35 0 -35 35v34q-1 37 -2 67q-1 53 -1 100t1 88q1 81 1 170q0 119 -2 253q-1 73 -56 341q1 -6 -59 232q-24 91 -24 117q0 4 1 6z" />
<glyph unicode="Z" horiz-adv-x="500" d="M70 30q0 17 47 185q10 38 93 417q90 414 107 523q44 187 44 238q0 19 -6 19q-3 11 -105 11q-29 0 -66 -1q-83 0 -84 14q-3 27 10 31q2 1 50 1l206 3q56 0 56 -33q0 -13 -14 -72q-14 -57 -20 -89q-4 -26 -38 -202q-38 -196 -64 -338q-61 -337 -134 -564q-18 -56 -18 -86 q0 -23 10 -31q9 -7 65 -7q35 0 89 3q118 0 123 -15q2 -5 2 -10q0 -18 -27 -24q-15 -3 -121 -3q-64 0 -160 1q-45 0 -45 29z" />
<glyph unicode="[" horiz-adv-x="389" d="M107 505q1 134 1 450q8 327 0 491q-3 43 24 62q17 13 112 4q91 -8 106 -17q10 -6 3 -18t-29 -11q-31 1 -111 5q-69 -3 -67 -39q14 -258 9 -659q-4 -357 2 -519q-9 -252 -4 -254q3 -6 96 -4q116 0 118 -35q2 -22 -43 -25q-84 -4 -130 0q-79 7 -86 17q-8 3 0 268 q6 161 -1 284z" />
<glyph unicode="\" horiz-adv-x="476" d="M20 1505q0 39 32 29q19 -6 40 -83q25 -89 56 -256q3 -15 135 -557q2 -6 112 -409q59 -217 60 -236q1 -49 -20 -50q-25 -1 -40 35q-2 7 -13 51l-12 45l-45 184q-230 931 -246 997q-59 251 -59 250z" />
<glyph unicode="]" horiz-adv-x="389" d="M21 -39q2 35 119 35q92 -2 95 4q5 2 -4 254q6 162 2 519q-5 401 9 659q3 36 -66 39q-80 -4 -112 -5q-21 -1 -29 11q-7 12 3 18q16 9 106 17q95 9 113 -4q26 -19 23 -62q-8 -164 0 -491q0 -316 1 -450q-7 -123 -1 -284q9 -265 0 -268q-7 -10 -86 -17q-46 -4 -130 0 q-44 3 -43 25z" />
<glyph unicode="^" horiz-adv-x="687" d="M72 1219q-12 -22 4 -45q5 -10 41 5q31 25 86 81q120 138 153 141q27 2 137 -133q71 -93 79 -97q40 -22 53 13q2 19 -9 34l-17 17l-15 15l-61 59q-147 170 -165 161q-21 3 -203 -175z" />
<glyph unicode="_" horiz-adv-x="710" d="M73 -15q11 16 110 14q194 -5 278 -1q118 5 141 -15q48 -50 -123 -52q-17 0 -123 -4q-100 -5 -139 -5q-116 0 -138 23q-19 23 -6 40z" />
<glyph unicode="`" horiz-adv-x="325" d="M60 1478q0 25 22 35q28 13 56 -37q6 -14 21 -47q14 -32 22 -47q84 -147 61 -163q-13 -9 -70 70q-16 20 -79 117q-32 52 -33 72z" />
<glyph unicode="a" horiz-adv-x="579" d="M87 304q6 -165 63 -243q40 -55 128 -55q15 0 31 2q46 5 75 19q24 11 30 10q14 -1 39 -25q13 -12 38 -12h4q32 1 32 19q0 6 -6 16q-9 15 -21 7q-12 -7 -21 2q-8 8 -8 34q0 27 1 48q1 15 1 44v38q1 47 2 156q1 114 1 135v12q0 48 -6 208q-2 68 -2 99q0 28 2 28v-1 q-4 12 -26 15q-5 1 -8 1q-15 0 -15 -10q0 -4 1 -16v-19q1 -20 -5 -14q-48 55 -126 56h-6q-52 0 -82 -18q-99 -59 -112 -203q-7 -73 -7 -181q0 -69 3 -152zM136 350q-4 77 -4 140q0 77 6 135q9 77 47 130q39 55 92 55h3q61 0 104 -46q47 -48 47 -310q0 -332 -11 -350 q-20 -34 -103 -44q-18 -2 -34 -3q-65 0 -97 40q-39 47 -50 253z" />
<glyph unicode="b" horiz-adv-x="565" d="M87 322v-62q0 -56 1 -87q4 -125 19 -150q11 -19 38 -22h-1l14 1q17 0 54 -1h15q134 0 185 68q60 80 66 229q3 83 3 151q0 108 -7 181q-14 146 -145 202q-32 14 -78 13q-15 0 -32 -1q-31 -3 -49 -3t-22 3q-13 10 -13 96q0 75 10 209q0 88 -3 147q-1 27 -22 27h-5 q-24 -2 -26 -36q-5 -86 -5 -330q0 -190 3 -476v-59v-100zM146 442v62q0 234 7 247q25 37 100 37h12q40 -1 82 -40q54 -48 68 -128q13 -75 13 -187q0 -39 -2 -83q-7 -201 -51 -243q-47 -44 -132 -52q-17 -2 -31 -1q-51 0 -62 19q-3 5 -4 369z" />
<glyph unicode="c" horiz-adv-x="430" d="M62 304v-10q0 -189 74 -250q48 -41 118 -44h10q70 0 126 40q11 8 11 20q0 9 -7 20q-16 26 -42 14q-56 -27 -68 -30q-15 -4 -31 -3q-40 0 -79 24q-58 35 -62 320q-1 43 -1 80q0 186 17 230q16 41 50 67q33 25 64 27h9q60 0 90 -24q23 -18 32 7q9 24 -15 41q-36 25 -88 25 q-39 0 -86 -14q-106 -32 -114 -209q-6 -116 -8 -331z" />
<glyph unicode="d" horiz-adv-x="535" d="M57 298q5 -149 66 -229q51 -68 185 -68h15q83 1 105 22q17 16 19 53v42q-1 33 0 55q1 31 1 87v62q-1 121 -1 159q4 308 4 504q0 221 -5 302q-2 34 -27 36h-4q-21 0 -22 -27q-3 -59 -3 -147q9 -137 9 -215q0 -94 -13 -103q-3 -2 -12 -3q-17 0 -58 9q-28 5 -52 5 q-33 0 -58 -10q-132 -56 -145 -202q-7 -73 -7 -181q0 -68 3 -151zM111 350q-1 35 -1 69q0 109 10 201q8 68 54 115q40 40 77 41h21q86 0 109 -30q6 -3 10 -301q8 -142 8 -230q0 -118 -14 -142q-13 -20 -63 -19q-14 0 -31 1q-84 8 -131 52q-44 41 -49 243z" />
<glyph unicode="e" horiz-adv-x="467" d="M62 304v-10q0 -189 74 -251q48 -40 118 -43h10q70 0 126 40q20 15 4 40q-16 26 -42 14q-55 -27 -68 -30q-15 -4 -31 -3q-40 0 -79 24q-59 36 -62 332q0 18 17 15q24 -3 51 -3q36 0 75 6q78 13 109 46q36 38 45 134q2 25 2 47q0 57 -15 91q-28 58 -58 80q-33 23 -80 23 q-34 0 -74 -12q-106 -32 -114 -209q-6 -114 -8 -331zM112 497q3 186 16 218q16 41 50 67q33 25 64 27h5q55 0 86 -45q25 -34 28 -110v-16q0 -72 -32 -113q-39 -49 -181 -49h-17q-19 1 -19 21z" />
<glyph unicode="f" horiz-adv-x="388" d="M89 798q2 -90 8 -205q5 -103 6 -106q0 -68 -5 -327v-45v-46q-2 -38 0 -54q2 -18 15 -18q4 0 10 2q23 9 24 38q0 22 -1 153q3 162 9 269q2 32 2 75q0 63 -4 151q-2 38 -2 65q0 48 7 56q10 10 142 20q36 7 42 31q5 25 -48 20q-25 -2 -53 -7l-37 -5q-31 -4 -45 7 q-21 15 -22 165v18q0 142 31 188q13 20 48 20q8 0 16 -1q47 -5 76 -33q18 -17 38 -63q14 -33 39 -34q13 -1 13 17q0 12 -7 35q-17 53 -53 91q-43 47 -112 47q-13 0 -28 -2q-59 -12 -78 -54q-12 -36 -18 -68q-16 -72 -16 -243q0 -70 3 -157z" />
<glyph unicode="g" horiz-adv-x="559" d="M82 395q2 -214 42 -288q52 -95 141 -113q22 -4 41 -4q33 0 58 12q6 3 17 9q7 4 10 6q7 5 11 0q4 -11 4 -42q0 -40 -7 -113q-16 -150 -66 -180q-24 -16 -53 -16q-19 0 -41 7q-18 5 -40 18l-28 16q-26 12 -38 -8q-13 -20 8 -35q58 -42 126 -42q74 0 119 41q50 45 72 328 q11 138 11 305q0 159 -10 345q-5 92 -27 127q-20 33 -79 51q-57 17 -99 17q-40 0 -67 -15q-48 -27 -82 -147q-23 -79 -23 -251v-28zM131 433q7 188 33 255q36 91 115 91h5q42 -1 75 -22q38 -25 44 -66q22 -177 22 -392q0 -191 -13 -205q-22 -25 -38 -34q-35 -21 -71 -21 q-8 0 -15 1q-72 7 -121 97q-37 68 -37 233q0 30 1 63z" />
<glyph unicode="h" horiz-adv-x="567" d="M87 324q0 60 0.5 99.5t-0.5 58.5q-3 286 -3 476q0 244 5 330q2 34 26 37h5q22 0 22 -27q3 -59 3 -148q-3 -98 -3 -167q0 -151 16 -163q9 -7 51 10q32 12 61 12q17 0 34 -4q169 -38 173 -246q1 -100 6 -322q4 -196 4 -199q0 -42 -8 -56q-9 -15 -23 -15q-31 0 -31 48 q-3 458 -6 567q-4 91 -62 137q-41 32 -89 34h-4q-30 0 -64 -16q-36 -18 -45 -39q-11 -29 -11 -218v-62q1 -96 4 -251q2 -124 2 -167q0 -33 -23 -33q-27 0 -35 25q1 -3 -4 150q-1 31 -1 87v62z" />
<glyph unicode="i" horiz-adv-x="250" d="M97 1004q6 7 29 7q22 0 31 -13q10 -15 10 -31q0 -40 -38 -40h-2q-22 0 -35 14q-11 11 -11 25q0 22 16 38zM109 835q-1 -1 -1 -56q0 -83 2 -287v-58.5v-100.5v-62q0 -56 1 -87q2 -101 8 -166q1 -18 12 -18q4 0 9 2q22 10 20 38v59v97q0 150 4 258q2 44 3 87q0 52 -3 105 q-5 84 -5 109v11q0 42 -18 64q-11 12 -20 12q-6 0 -12 -7z" />
<glyph unicode="j" horiz-adv-x="319" d="M-27 -297q15 -23 48 -50q30 -24 67 -24q15 0 31 4q65 16 86 106q19 83 19 364q0 231 -13 597v30q0 30 1 61q1 38 0 54q-3 24 -26 16q-23 -9 -24 -38v-7q0 -32 5 -183q5 -132 5 -192q0 -20 -1 -32v-16q0 -34 2 -121q3 -141 3 -222q-1 -302 -27 -339q-29 -39 -60 -39 q-24 0 -49 22q-40 44 -59 44q-2 0 -4 -1q-10 -4 -10 -14q0 -8 6 -20zM153 1005q7 6 29 6t31 -12q11 -15 11 -31q0 -40 -37 -40h-4q-21 0 -34 13q-11 11 -11 26q0 22 15 38z" />
<glyph unicode="k" horiz-adv-x="464" d="M87 78q1 41 1 74v30q-1 31 -1 86v62q0 60 0.5 100t-0.5 59q-3 286 -3 476q0 244 5 330q2 34 26 37h4q22 0 23 -28q3 -58 3 -147q0 -652 3 -672q2 -17 7 -19q6 -3 22 9q13 10 111 179q102 173 109 181q18 20 33 19q18 -2 14 -42q-4 -29 -115 -189q-106 -153 -106 -177 q0 -19 121 -216q119 -192 119 -203q0 -27 -35 -27q-24 0 -115 172q-21 41 -66 129q-34 68 -42 81q-19 31 -32 31q-10 0 -18 -18q-9 -25 -9 -362q0 -33 -23 -33q-27 0 -35 25q-2 5 -2 23q0 12 1 30z" />
<glyph unicode="l" horiz-adv-x="357" d="M107 1217q1 -69 1 -111v-35q-13 -366 -13 -597q0 -281 19 -364q20 -90 86 -106q16 -4 31 -4q37 0 67 24q31 25 45 56q5 12 5 21q0 13 -13 14q-14 2 -37 -23q-28 -30 -41 -37q-34 -18 -53 -13q-16 5 -34 32q-27 42 -27 326v21q0 81 3 222q2 116 2 137v36q0 71 4 243 q5 232 4 246q-1 29 -23 37q-6 2 -11 2q-13 0 -15 -18v-35.5v-73.5z" />
<glyph unicode="m" horiz-adv-x="936" d="M83 199q-1 -49 -1 -84q0 -71 4 -87q6 -28 29 -28q19 0 19 43v12.5v38.5q0 64 1 229v-1l-3 127q-2 54 -2 88.5t2 49.5q13 136 42 175q27 37 93 41q17 1 32 1q78 0 106 -26q33 -32 35 -96q0 -29 -1 -98q-1 -30 -1 -51t1 -33q2 -39 5 -362v-95q2 -35 16 -41q3 -1 6 -1 q21 0 23 67q2 54 1.5 111t-1.5 118q0 31 -1 148v83.5v34.5q7 181 20 203q26 44 103 44h16q102 -4 133 -35q31 -29 32 -97q3 -120 7 -178q2 -32 2 -157q0 -84 -1 -209q0 -75 4 -97q6 -33 26 -35q21 -3 21 30q0 11 1 43q1 34 1 45q1 88 1 163q0 297 -10 367q-16 122 -43 150 q-54 57 -164 57q-91 0 -141 -37q-28 -21 -35 -21q-11 0 -26 12q-56 46 -163 46q-31 0 -63 -13q-43 -15 -72 -49q-5 -6 -5 15v18q1 12 1 16q0 13 -23 10q-22 -4 -26 -15q-1 -3 -1 -50v-57q2 -116 2 -122v-1q-1 -23 -1 -47q0 -301 -1 -363z" />
<glyph unicode="n" d="M82 715q2 64 2 94t-2 27q4 11 27 15q4 1 8 1q15 0 15 -11q0 -4 -1 -16t-1 -18q0 -21 5 -15q50 59 142 59q124 0 175 -55q19 -21 37 -154q10 -70 10 -362q0 -73 -1 -159q0 -12 2 -44t2 -43q0 -16 -11 -25q-8 -8 -16 -7q-28 2 -31 35v-1q1 0 1 99q1 101 1 174q0 146 -3 181 q-4 59 -7 180q-1 69 -31 98q-37 37 -106 37q-8 0 -17 -1q-80 -5 -110 -42q-25 -33 -40 -184q-5 -52 -5 -139q0 -148 14 -397q0 -16 -7 -29q-8 -13 -19 -13q-23 0 -29 29q-4 15 -4 81q0 33 1 78q1 63 1 365q-2 100 -2 141v21z" />
<glyph unicode="o" horiz-adv-x="521" d="M71 333q2 -195 49 -260q37 -51 86 -66q24 -7 86 -7q67 0 106 51q46 59 51 151q2 35 2 273q-1 233 -58 301q-35 41 -62 54q-22 11 -49 11q-22 0 -47 -7q-57 -16 -98 -68q-43 -55 -52 -130q-14 -112 -14 -280v-23zM129 351v19q0 148 15 254q9 69 55 121q40 47 75 47h2 q52 0 87 -57q30 -50 37 -295q1 -38 1 -72q0 -244 -56 -294q-28 -25 -65 -25q-11 0 -23 2q-49 9 -86 50q-40 45 -42 250z" />
<glyph unicode="p" horiz-adv-x="529" d="M84 -326q2 -17 2 -46q0 -34 1 -43q2 -44 17 -45h3q32 0 35 50q0 45 -3 213q-1 54 -1 94q0 106 6 113q3 4 31 -4q37 -11 63 -12h7q94 0 155 107q45 79 52 287q1 34 1 64q0 154 -29 236q-33 95 -77 132q-27 23 -69 24h-4q-38 0 -66 -16q-75 -41 -74 -43q-5 5 -5 43 q0 13 -19 12q-18 0 -22 -12q0 3 -3 -125q-1 -77 -1 -85q3 -157 3 -319q0 -136 -2 -276q-3 -167 -3 -256q0 -72 2 -93zM140 90q-4 15 -4 137q0 149 6 459q0 23 14 44q8 7 15 17q51 45 88 45q42 0 67 -27q19 -21 41 -75q26 -66 31 -260q1 -22 1 -43q0 -183 -40 -256 q-46 -83 -126 -83q-30 0 -64 11q-23 8 -29 31z" />
<glyph unicode="q" horiz-adv-x="528" d="M76 388q7 -208 52 -287q61 -107 155 -107h7q26 1 63 12q28 8 32 4q6 -7 6 -113q0 -40 -1 -94q-4 -168 -4 -213q3 -50 35 -50h3q15 1 17 45q1 9 1 43q1 29 2 46q2 21 2 93q0 89 -3 256q-2 140 -2 276q0 162 3 319q0 8 -1 85q-2 96 -2 118q0 8 0 7q-4 12 -23 12 q-19 1 -19 -12q0 -38 -5 -43q2 2 -74 43q-28 16 -65 16h-4q-43 -1 -69 -24q-45 -37 -78 -132q-29 -83 -29 -242q0 -28 1 -58zM131 430q5 194 31 260q21 54 41 75q25 27 66 27q37 0 88 -45q7 -10 15 -17q14 -21 15 -44q6 -310 6 -459q0 -122 -4 -137q-7 -23 -30 -31 q-34 -11 -63 -11q-80 0 -126 83q-40 71 -40 250q0 23 1 49z" />
<glyph unicode="r" horiz-adv-x="455" d="M83 182q1 63 1 365v27q0 47 2 134q0 11 -2 70q-1 25 -1 38.5t1 16.5q4 11 24 12h5q15 0 15 -11q-1 -21 0 -43q0 -18 11 -20q75 67 128 72q17 2 33 1q84 0 133 -48q11 -12 11 -20.5t-11 -14.5q-22 -12 -44 8q-34 29 -85 29h-13q-75 -4 -120 -62q-26 -33 -39 -164 q-5 -52 -5 -139q0 -148 14 -397q0 -16 -7 -29q-8 -13 -19 -13q-23 0 -29 29q-4 15 -4 81q0 33 1 78z" />
<glyph unicode="s" horiz-adv-x="410" d="M64 39q0 21 24 21q5 0 17 -8q13 -7 24 -8h4q95 0 145 92q32 61 32 126q0 21 -3 42q-11 73 -147 209q-66 67 -87 159q-6 25 -6 49q0 74 55 128q21 22 58 32q20 5 35 5q7 0 13 -1q55 -11 70 -40q9 -16 -7 -25q-6 -4 -27 10q-26 17 -38 20q-6 1 -12 1q-33 0 -70 -40 q-24 -24 -25 -72q0 -24 7 -54q7 -31 66 -127q13 -20 51 -57q42 -40 62 -67q55 -78 55 -144q0 -110 -34 -184q-18 -38 -62 -71q-44 -32 -80 -34q-11 -1 -23 -1q-17 0 -34 2q-24 2 -43 13q-20 11 -20 24z" />
<glyph unicode="t" horiz-adv-x="394" d="M41 883q0 -13 10 -16t49 -2q34 0 37 -6v-38q0 -75 -1 -298v-102q0 -254 13 -311q16 -73 55 -97q21 -13 44 -13q25 0 53 15q36 19 45 44q2 6 2 11q0 15 -18 24q-11 0 -22 -13q-15 -17 -29 -25q-12 -4 -23 -4q-44 0 -62 66q-16 34 -16 320q0 137 4 331q-1 22 -1 39 q0 45 6 52q3 4 99 10q28 2 32 24q5 23 -26 23q-59 -5 -86 -5q-18 0 -20 2q-4 2 -4 47.5t4 134.5q7 146 7 188v13q-1 30 -24 38q-6 2 -11 2q-13 0 -15 -18q0 -8 -0.5 -35.5t0.5 -73.5q1 -69 1 -111v-35q-5 -148 -9 -151q-4 -4 -29 -5q-47 -1 -51 -3q-14 -5 -14 -22z" />
<glyph unicode="u" d="M80 818q0 15 10 24q9 8 16 7q29 -2 32 -35v1q-1 0 -1 -99q-1 -100 -1 -173q0 -146 3 -182q4 -59 6 -180q2 -69 31 -98q38 -37 107 -37q8 0 17 1q80 5 109 43q26 32 40 183q5 51 5 142q0 146 -13 394q-1 16 7 29t18 13q24 0 30 -28q4 -17 4 -91q0 -30 -1 -69 q-1 -63 -2 -364q3 -108 3 -148v-15q1 -46 1 -74q0 -43 -2 -46q-4 -12 -26 -15q-23 -4 -23 9q0 4 1 16v19q0 20 -5 14q-50 -59 -142 -59q-123 0 -182 50q-35 28 -38 160q-2 52 -2 229q0 118 1 291q1 12 -1 44q-2 33 -2 44z" />
<glyph unicode="v" horiz-adv-x="517" d="M50 806q0 15 10 24q9 8 16 8q27 -2 29 -37q1 -7 1 -39q0 -28 2 -49q4 -36 34 -317q15 -149 52 -244q30 -80 62 -80h2q44 3 73 119q10 41 57 337q20 127 20 221q0 22 -1 43q-1 15 9 31t20 16q30 0 30 -30q0 -14 -11 -139q-17 -181 -31 -260q-29 -188 -42 -243 q-47 -167 -124 -167q-56 0 -106 130q-40 104 -61 257q-38 276 -38 331q1 12 -1 44q-2 33 -2 44z" />
<glyph unicode="w" horiz-adv-x="879" d="M50 806q0 -11 2 -44q2 -32 1 -44q0 -53 38 -331q21 -153 61 -257q50 -130 106 -130q77 0 124 167q7 34 38 221q14 112 18 118q6 10 14 -46q2 -17 6 -49q4 -34 5 -44q23 -165 51 -237q50 -130 106 -130q76 0 124 167v-1q-2 0 42 244q14 79 30 260q12 126 12 140 q0 29 -30 29q-11 0 -20 -16q-10 -16 -9 -31q1 -20 1 -42q0 -94 -21 -222q-47 -296 -56 -337q-29 -116 -73 -119h-2q-32 0 -62 80q-37 95 -53 244q-30 284 -33 317q-3 26 -3 86q0 34 -31 40q-3 1 -5 1q-11 0 -18 -15t-6 -33q1 -21 1 -43q0 -94 -20 -221q-47 -294 -57 -337 q-29 -116 -73 -119h-2q-32 0 -62 80q-37 95 -52 244q-30 284 -34 317q-2 21 -2 49q0 32 -1 39q-2 35 -29 37q-7 0 -16 -8q-10 -9 -10 -24z" />
<glyph unicode="x" horiz-adv-x="575" d="M59 54q-3 -9 -3 -18q0 -16 12 -28q8 -8 15 -8q8 0 16 11q37 54 93 174q76 162 87 162h1q8 -5 37 -68q34 -76 47 -97q60 -99 105 -164q8 -11 18 -11q8 0 17 8q13 11 13 24q0 9 -6 20q-2 3 -109 183q-96 161 -96 169q-1 14 22 52q158 269 158 347q0 6 -1 10q-2 14 -15 14 q-6 0 -15 -3q-28 -10 -49 -50q-10 -19 -71 -168q-53 -128 -60 -128q-7 1 -57 126q-57 143 -68 164q-21 40 -50 50q-26 9 -30 -12q-1 -4 -1 -9q0 -74 160 -344q13 -23 13 -49q0 -8 -85 -164q-89 -163 -98 -193z" />
<glyph unicode="y" horiz-adv-x="517" d="M78 884q7 0 15 -3q21 -7 61 -119q63 -179 115 -283q1 -2 2 -2q8 0 34 86q41 140 40 136q2 7 41 138q11 44 43 44q30 0 30 -36q0 -9 -2 -21q-3 -19 -25 -71q-27 -63 -40 -104q-15 -51 -53 -148q-38 -98 -44 -117q-11 -37 -32 -155q-21 -123 -25 -136q-25 -93 -41 -93 q-20 0 -24 10q-5 13 8 57q46 155 46 297v17q-1 58 -68 228q-17 41 -36 77q-18 33 -27 57q-44 98 -44 114q0 27 26 27z" />
<glyph unicode="z" horiz-adv-x="507" d="M50 29q0 6 91 207q25 56 145 270q102 181 102 238q0 12 -4 18q-9 14 -77 14q-51 0 -135 -8q-80 0 -80 -1h2q-29 1 -30 12q-4 31 11 36q16 5 71 5l236 4q65 0 65 -37v-6q-7 -65 -64 -201q-12 -27 -196 -365q-69 -127 -69 -158q0 -7 3 -9q5 -4 27 -4q44 0 156 17 q136 0 142 -18q2 -6 2 -12q0 -20 -31 -27q-18 -4 -149 -4q-66 0 -160 1q-58 0 -58 28z" />
<glyph unicode="{" horiz-adv-x="346" d="M70 755q0 11 30 31q50 35 50 129q-34 296 -28 371q11 131 35 172q34 61 92 61q21 0 49 -11t28 -23q-1 -25 -33 -21l-40 4q-83 9 -71 -201q-3 -85 15 -243q20 -148 -13 -218q-5 -9 -25 -27q-19 -16 -20 -27q4 -9 23 -25q21 -19 25 -27q15 -20 15 -70l-10 -201 q-14 -143 -18 -241q-3 -72 27 -124q29 -50 66 -50q44 -1 51 -10q8 -8 8 -17q0 -22 -67 -22q-68 0 -102 61q-35 59 -35 172q9 128 13 202q2 30 12 116q9 71 9 104q0 76 -53 104q-33 17 -33 31z" />
<glyph unicode="|" horiz-adv-x="171" d="M60 2v198q1 1006 2 1074q2 269 2 268q6 39 29 21q13 -9 14 -94q2 -96 -6 -274q0 -15 -2 -599q0 -6 8 -443q4 -235 1 -255q-8 -48 -24 -45q-18 5 -23 45v55z" />
<glyph unicode="}" horiz-adv-x="346" d="M20 -13q0 9 8 17q7 9 51 10q36 0 66 50q30 52 27 124q-5 98 -19 241l-9 201q0 50 15 70q4 8 25 27q19 16 22 25q-1 11 -19 27q-21 18 -25 27q-34 70 -13 218q17 158 15 243q12 210 -71 201l-40 -4q-32 -4 -33 21q0 12 28 23q27 11 49 11q57 0 92 -61q24 -41 35 -172 q6 -75 -28 -371q0 -94 49 -129q31 -20 31 -31q0 -14 -33 -31q-53 -28 -53 -104q0 -33 9 -104q10 -86 12 -116q4 -74 13 -202q0 -113 -35 -172q-35 -61 -102 -61t-67 22z" />
<glyph unicode="~" horiz-adv-x="615" d="M41 629q1 58 37 105q41 52 113 48q46 -2 97 -53q11 -11 30 -35q18 -23 29 -34q55 -55 119 -45q50 7 49 93q0 13 -20 35q-14 19 -3 40q8 17 33 12q28 -5 41 -38q9 -28 1 -81q-9 -54 -29 -72q-41 -42 -92 -42q-49 0 -95 28q-37 20 -75 60q-36 40 -57 59q-40 30 -71 17 q-46 -18 -48 -62q-1 -15 6 -36q9 -24 9 -30q3 -34 -28 -38q-20 -2 -34 24q-13 23 -12 45z" />
<glyph unicode="&#xa1;" horiz-adv-x="315" d="M93 1036q-3 62 71 64q61 1 61 -63q0 -24 -15 -46q-14 -20 -48 -20q-35 0 -45 11q-22 23 -24 54zM117 -458q18 239 20 323q2 82 9 364q-13 461 -12 500q4 111 59 61q-1 1 -1 -180l-2 -92q0 -41 2 -213q4 -167 4 -293q0 -137 10 -291q9 -154 9 -193q0 -46 -36 -46 q-26 0 -44 14q-18 15 -18 46z" />
<glyph unicode="&#xa2;" horiz-adv-x="465" d="M71 427q0 -189 70 -262q27 -23 68 -33q29 -6 37 -9q8 -4 5 -103q2 -25 21 -19t20 36q-4 84 0 88q3 3 46 14q44 12 57 22q20 15 4 40q-16 26 -42 14q-55 -27 -68 -30q-56 -13 -110 21q-64 43 -62 320q-4 258 16 310q16 41 50 67q33 26 64 27q67 2 99 -23q23 -18 32 6 t-15 41q-11 8 -52 15q-40 7 -42 9q0 1 1 84q0 26 -11 37q-11 10 -23 -5q-9 -10 -7 -62q1 -51 -2 -54q-2 -2 -38 -13q-106 -32 -114 -209q-5 -112 -4 -329z" />
<glyph unicode="&#xa3;" horiz-adv-x="535" d="M88 742q9 -19 38 -20q66 -1 64 1q12 -11 5 -300q-2 -87 -16 -194q-11 -81 -44 -129q-18 -26 -32 -53q-3 -6 -2 -19q2 -15 6 -19q9 -9 22 -9q198 0 239 2q107 5 107 26q0 11 -8 20q-7 9 -19 9q-250 -6 -266 3q-7 3 25 65q41 89 38 300q-6 291 1 298q4 5 124 1q45 -2 68 18 q21 18 5 31q-14 12 -182 2q-15 -1 -15 15q1 66 1 89q0 58 -1 156q-1 96 -1 126q0 113 9 159q11 55 45 81q30 22 77 9q49 -13 65 -3t3 29t-44 31q-26 9 -65 2q-47 -9 -84 -42q-33 -30 -56 -131q-9 -38 -4 -231q4 -160 1 -279q-1 -15 -16 -17q-21 -1 -46 -3q-27 -2 -26 -2 q-24 -2 -16 -22z" />
<glyph unicode="&#xa4;" horiz-adv-x="748" d="M79 1047q-19 -26 14 -75q9 -14 33 -33q19 -14 22 -29q3 -13 -19 -69q-23 -61 -19 -87q-4 -50 27 -112q29 -56 27 -64q-5 -22 -66 -97q-15 -18 6 -36t37 -1q66 77 76 88q7 6 16 1q37 -20 129 -34q78 -12 156 52q9 7 39 -15q50 -40 92 -40q39 0 34 28q-3 17 -54 41 q-49 24 -50 36q-1 6 15 34q21 37 31 62q38 97 -11 190q-33 47 -34 51q-3 5 45 55q46 51 46 68q1 42 -41 35q-17 -3 -58 -54q-40 -49 -46 -50q-9 -1 -32 10q-29 14 -34 16q-90 27 -176 -9q-27 -11 -53 -29q-13 -10 -25 -18q-11 -5 -84 81q-24 29 -43 4zM171 827 q37 91 109 129q85 45 192 -14q164 -97 106 -228q-54 -122 -144 -151q-99 -31 -216 52q-71 100 -47 212z" />
<glyph unicode="&#xa5;" horiz-adv-x="533" d="M76 666q10 -8 84 -5q75 4 79 0q4 -3 -1 -337q-2 -82 0 -188q0 -30 1 -67q1 -30 1 -34q0 -35 35 -35q21 0 21 31q0 4 -4 170q-4 174 -4 217q-4 240 3 247q-2 -2 157 11q25 1 17 21q-9 19 -38 20q-6 0 -70 -5q-56 -4 -61 -1q-12 7 -4 59q6 43 10 46q1 6 146 8q25 2 17 21 q-9 19 -38 20q-18 1 -96 -1q-17 0 -13 16q39 153 48 199q10 51 39 178q28 118 31 135q12 77 -21 77q-25 0 -37 -48q3 8 -51 -301q-50 -278 -61 -254q-8 16 -50 275q-51 316 -76 325q-34 11 -41 -23q-4 -18 22 -123q61 -239 59 -232q46 -223 43 -225q-2 -2 -74 1 q-45 1 -68 -18q-21 -18 -5 -32q10 -8 79 -4q72 5 76 3q11 -6 12 -66q0 -22 -8 -29q-6 -5 -86 -2q-45 1 -68 -18q-21 -18 -5 -32z" />
<glyph unicode="&#xa6;" horiz-adv-x="211" d="M80 -23v82q1 419 2 447l2 112q6 16 29 8q13 -3 14 -39q2 -40 -6 -114q0 -6 -2 -249q0 -3 8 -184q4 -98 1 -106q-8 -20 -24 -19q-18 2 -23 19v22zM80 889v82q1 419 2 447l2 112q6 16 29 9q13 -4 14 -40q2 -40 -6 -114q0 -6 -2 -249q0 -2 8 -184q4 -98 1 -106 q-8 -20 -24 -19q-18 2 -23 19v23z" />
<glyph unicode="&#xa7;" horiz-adv-x="524" d="M86 42q0 -33 74 -40q34 -3 67 -1q44 3 96 37q52 35 73 77q40 79 40 199q0 63 -63 144q-25 31 -64 65q-34 29 -40 41q-8 14 31 26q57 18 79 34q85 64 73 168q-9 80 -69 156q-11 14 -110 161q-71 104 -78 137q-23 97 20 137q53 51 98 42q14 -3 45 -22q25 -15 32 -11 q19 10 8 28q-18 30 -83 43q-70 13 -125 -39q-86 -78 -58 -192q48 -130 101 -189q47 -55 25 -70q-1 0 -45 -15q-37 -12 -73 -43q-80 -70 -43 -220q20 -83 109 -164q158 -145 168 -202q16 -95 -35 -181q-60 -103 -176 -100q-13 0 -28 9q-15 8 -20 8q-29 0 -29 -23zM146 727 q-25 66 21 130q44 62 115 54q42 -5 84 -55q14 -24 12 -21q46 -89 -32 -159q-74 -49 -126 -33q-55 34 -74 84z" />
<glyph unicode="&#xa8;" horiz-adv-x="413" d="M40 1438q0 40 52 43q11 0 31 -23q22 -25 7 -49q-19 -29 -43 -27q-25 2 -34 13q-13 15 -13 43zM283 1453q20 30 43 27q25 -2 34 -13q13 -15 13 -43q0 -39 -51 -42q-11 -1 -32 23q-22 25 -7 48z" />
<glyph unicode="&#xa9;" horiz-adv-x="945" d="M70 778q0 395 93 573q96 180 268 168q168 -11 264 -110q95 -98 129 -237q30 -119 35 -226q5 -79 8 -289q8 -404 -80 -532q-29 -42 -58 -43t22 72q92 129 75 539q-18 441 -107 599q-99 175 -293 175q-138 0 -207 -129q-56 -108 -78 -243q-25 -156 -29 -333 q-2 -124 27 -340q18 -130 51 -216q78 -206 219 -211q172 -6 318 133q53 49 43 43q33 19 25 -24q-7 -36 -73 -89q-63 -49 -124 -74q-114 -44 -189 -37q-220 17 -288 290q-51 203 -51 541zM222 844q0 213 69 337q25 44 87 70q73 30 153 6q87 -27 112 -85q18 -46 -1 -61 q-9 -7 -24 -1q-15 5 -15 16q6 91 -142 96q-102 5 -141 -80q-42 -89 -50 -153q-8 -68 -7 -235q0 36 16 -257q8 -148 60 -208q73 -81 184 -35q101 43 103 100q9 35 53 11q29 -32 -39 -99q-74 -74 -193 -74q-110 0 -167 87q-58 89 -58 565z" />
<glyph unicode="&#xaa;" horiz-adv-x="472" d="M57 1066q4 -119 52 -175q38 -46 131 -38q38 3 63 13q20 8 25 8q11 -1 32 -18q11 -9 34 -9t27 12q1 4 -5 13q-8 11 -18 5q-10 -5 -17 2q-6 6 -6 24v35q1 10 1 31v28q1 33 2 113q0 82 1 97q1 27 -5 159q-3 97 0 91q-4 8 -22 10q-19 3 -19 -6q0 -3 1 -12v-13q0 -15 -4 -11 q-40 40 -104 41q-47 1 -73 -13q-82 -43 -93 -147q-10 -86 -3 -240zM97 1100q-8 123 2 198q7 56 38 93q33 40 77 40q52 1 89 -33q38 -35 38 -224q0 -239 -9 -252q-16 -24 -85 -32q-75 -8 -108 27q-33 34 -42 183z" />
<glyph unicode="&#xab;" horiz-adv-x="753" d="M70 679q-10 -23 181 -225l66 -82l17 -20q16 -20 19 -23q18 -16 38 -13q31 5 13 51q-5 9 -107 129q-168 175 -162 179q-7 29 163 230q63 72 91 114q24 35 15 43q-27 21 -51 5l-86 -113q-201 -248 -197 -275zM341 679q-10 -23 181 -225l66 -82l17 -20q16 -20 19 -23 q18 -16 38 -13q31 5 13 51q-5 9 -107 129q-168 175 -162 179q-7 29 163 230q63 72 91 114q24 35 15 43q-27 21 -51 5l-86 -113q-201 -248 -197 -275z" />
<glyph unicode="&#xac;" horiz-adv-x="748" d="M42 714q2 26 17 33h21l20 1h76q389 -1 415 -3l104 -2q13 -3 12 -40q-1 -11 -1 -28q0 -6 1 -200l1 -27l-2 -21l-5 -14q-11 -7 -32 -5q-17 -1 -30 8q-4 14 2 50q3 50 4 85q-3 113 -3 116q0 13 -4 13q-35 5 -78 9q-5 0 -231 3q-3 0 -171 -12q-91 -6 -99 -1q-19 11 -17 35z " />
<glyph unicode="&#xad;" horiz-adv-x="594" d="M51 636q10 13 96 11q169 -3 242 -1q103 4 123 -11q42 -41 -107 -43q-15 0 -107 -3q-88 -4 -122 -4q-100 0 -119 18q-17 19 -6 33z" />
<glyph unicode="&#xae;" horiz-adv-x="943" d="M78 809q-8 403 80 530l2 4q19 28 63 63q62 49 124 74q113 43 188 37q220 -17 287 -290q51 -201 51 -539q0 -394 -93 -571q-96 -180 -267 -168q-167 11 -264 110q-94 97 -128 237q-30 118 -35 224q-5 79 -8 289zM119 772q18 -439 107 -597q99 -174 292 -174q138 0 205 129 q57 107 79 242q25 156 29 332q2 123 -27 339q-18 130 -51 215q-77 206 -218 211q-172 6 -318 -133q-11 -10 -18 -18q-3 -3 -6 -7q-91 -130 -74 -539zM298 1159q2 -17 3 -51q0 -4 -1 -49q-2 -43 1 -84q6 -121 6 -183l7 -297l-13 -253q0 -44 23 -48q25 -5 38 9q5 6 5 105 q-21 467 -8 452q2 9 51 -126q43 -98 53 -130q23 -70 54 -135q12 -25 35 -83q21 -52 25 -61q20 -33 35 -33q50 0 30 47q-132 278 -137 292q-98 240 -94 246q11 18 55 32q107 33 145 118q31 69 25 135q-4 60 -58 126q-44 41 -92 60q-59 23 -127 23q-55 0 -58 -22 q-7 -45 -3 -90zM342 1020q-1 195 8 204q23 21 81 7q86 -21 121 -76q46 -72 37 -151q-10 -91 -105 -144q-95 -52 -130 -38q-10 3 -12 198z" />
<glyph unicode="&#xaf;" horiz-adv-x="670" d="M53 1579q11 16 110 14q194 -5 278 -1q118 5 141 -15q48 -50 -123 -52q-17 0 -123 -4q-100 -5 -139 -5q-116 0 -138 23q-19 23 -6 40z" />
<glyph unicode="&#xb0;" horiz-adv-x="407" d="M86 1411q-46 -68 21 -145q63 -69 99 -68q161 10 161 124q0 86 -42 131q-25 29 -105 38q-74 7 -134 -80zM137 1387q36 55 84 51q50 -5 68 -24q25 -28 25 -84q0 -73 -103 -79q-22 -1 -61 44q-44 48 -13 92z" />
<glyph unicode="&#xb1;" horiz-adv-x="693" d="M69 683q-9 -11 4 -23q15 -23 92 -23q139 6 141 -2q6 2 2 -173q2 -40 11 -73q12 -46 33 -24q4 4 4 144q-9 117 2 129q9 5 178 3q97 2 67 36q-14 23 -113 17q-32 -2 -95 -3q-25 0 -33 10q-3 12 -1 199q-1 64 -13 71q-10 12 -22 -1q-25 -22 -19 -137q6 -140 -6 -142l-159 4 q-66 4 -73 -12zM113 254q10 11 91 9q159 -3 228 -1q97 4 116 -10q39 -36 -101 -38q-14 0 -101 -3q-83 -4 -115 -4q-94 0 -112 17q-16 17 -6 30z" />
<glyph unicode="&#xb2;" horiz-adv-x="428" d="M62 687q5 48 139 236q108 153 108 303q0 98 -30 156q-31 60 -81 50q-69 -15 -80 -91q-9 -91 -29 -91q-25 0 -25 34q0 23 18 90q8 28 35 58q36 40 79 40q71 0 111 -59q50 -73 49 -190q-1 -121 -97 -290q4 9 -87 -138q-52 -83 -44 -94q9 -10 102 -5q106 7 109 6 q29 -3 28 -27q-1 -16 -22 -26q-12 -6 -235 0q-17 0 -31 9q-19 11 -17 29z" />
<glyph unicode="&#xb3;" horiz-adv-x="447" d="M67 1335q0 26 44 89q40 56 122 56q72 0 102 -64q29 -63 0 -142q-61 -170 -65 -154q3 -12 32 -39q32 -30 46 -59q39 -80 39 -152q0 -96 -42 -146q-57 -67 -140 -67q-60 0 -103 38q-42 37 -34 55q7 16 25 10q15 -9 45 -30q43 -27 66 -27q46 -1 83 30q46 40 51 113t-27 142 q-26 56 -57 77q-53 37 -53 36q-3 14 26 49q24 30 71 150q16 40 -3 86q-18 47 -54 48q-84 3 -118 -80q-13 -32 -26 -40q-30 -17 -30 21z" />
<glyph unicode="&#xb4;" horiz-adv-x="286" d="M64 1219q-24 16 61 163q8 15 21 47q15 33 22 47q28 50 56 37q22 -10 22 -35q-1 -20 -33 -72q-63 -97 -79 -117q-57 -79 -70 -70z" />
<glyph unicode="&#xb5;" d="M81 -60q1 190 1 193q-1 22 2 162q0 302 -1 365q-3 136 2 159q7 29 30 29q11 0 19 -13q7 -13 7 -29q-22 -394 -9 -536q15 -151 40 -183q30 -38 110 -43q81 -5 124 36q29 29 30 98q3 121 7 180q4 54 2 355q0 108 -1 98q3 33 31 35q8 1 16 -7q11 -9 11 -24q0 -11 -2 -44 q-2 -32 -2 -44q3 -433 -9 -521q-18 -133 -37 -154q-51 -55 -175 -55q-92 0 -142 59q-3 4 -3 -300q0 -13 -23 -9q-23 3 -27 15q-1 4 -1 178z" />
<glyph unicode="&#xb6;" horiz-adv-x="603" d="M54 1259q-4 -104 24 -213q16 -58 64 -121q43 -57 75 -73q91 -47 99 -67q-12 30 -9 -714q1 -156 5 -164q13 -24 36 -17q22 7 22 76l-12 399l23 460q0 189 4 298q2 63 1 131q-1 71 -1 78q1 53 2 80q1 22 -3 72q-4 40 1 46q6 9 39 8q32 -1 40 -7q-4 2 4 -1074v-183 q-1 -119 0 -173q3 -115 8 -192q1 -28 19 -18q18 9 19 43q0 -17 0 181q0 174 5 298q4 113 -1 586q-5 480 -5 498q3 86 -14 93q-26 10 -78 6q-83 -7 -106 -7q-64 0 -119 -37q-46 -31 -87 -95q-51 -104 -55 -198z" />
<glyph unicode="&#xb7;" horiz-adv-x="212" d="M43 546q2 30 24 53q9 10 43 10q32 0 47 -20q15 -21 15 -45q0 -62 -61 -61q-71 2 -68 63z" />
<glyph unicode="&#xb8;" horiz-adv-x="265" d="M50 -288q-10 -46 85 -39q49 3 70 47q20 40 3 70q-13 21 -41 39q-31 19 -32 20q-10 12 14 42q23 29 15 54q-8 24 -32 -9q-25 -33 -43 -69q-20 -41 -11 -48t34 -15q27 -8 44 -18q29 -19 14 -53q-9 -18 -64 -14q-54 5 -56 -7z" />
<glyph unicode="&#xb9;" horiz-adv-x="435" d="M77 1324q11 27 80 102q73 80 98 81q34 2 42 -24q13 -40 -5 -262q-14 -178 -13 -230q5 -254 -2 -245q9 -12 42 -11q56 0 56 -24q0 -27 -42 -27l-205 2q-12 0 -24 6q-17 9 -13 23q5 14 27 16q7 1 20 1q15 -1 20 -1q56 2 63 11q-12 -14 24 585q6 102 -1 114q-6 11 -65 -69 q-64 -86 -80 -87q-39 -4 -22 39z" />
<glyph unicode="&#xba;" horiz-adv-x="343" d="M77 1427q-37 -55 17 -117q51 -55 80 -54q129 8 129 99q0 69 -34 106q-20 23 -84 30q-59 6 -108 -64zM118 1408q29 44 68 41q40 -4 54 -20q20 -22 20 -67q0 -59 -82 -64q-18 -1 -49 36q-36 38 -11 74z" />
<glyph unicode="&#xbb;" horiz-adv-x="753" d="M78 367q-18 -46 13 -51q20 -3 38 13q3 3 19 23l17 20l66 82q191 202 181 225q4 27 -197 275l-86 113q-24 16 -51 -5q-9 -8 15 -43q28 -42 91 -114q170 -201 163 -230q6 -4 -162 -179q-102 -120 -107 -129zM349 367q-18 -46 13 -51q20 -3 38 13q3 3 19 23l17 20l66 82 q191 202 181 225q4 27 -197 275l-86 113q-24 16 -51 -5q-9 -8 15 -43q28 -42 91 -114q170 -201 163 -230q6 -4 -162 -179q-102 -120 -107 -129z" />
<glyph unicode="&#xbc;" horiz-adv-x="1175" d="M86 0q26 4 62 54q13 18 70 98q78 111 122 171q185 260 320 443q123 165 235 333q117 173 139 203q56 77 69 128q12 46 -19 26q-4 -3 -420 -594q-45 -64 -195 -273q-126 -177 -182 -258q-121 -174 -198 -291q-29 -44 -3 -40zM91 1324q11 27 80 102q73 80 98 81 q34 2 42 -24q13 -40 -5 -262q-14 -178 -13 -230q5 -254 -2 -245q9 -12 42 -11q56 0 56 -24q0 -27 -42 -27l-205 2q-12 0 -24 6q-17 9 -13 23q5 14 27 16q7 1 20 1q15 -1 20 -1q56 2 63 11q-12 -14 24 585q6 102 -1 114q-6 11 -65 -69q-64 -86 -80 -87q-39 -4 -22 39z M754 267q-8 20 74 493q2 43 26 42q29 -1 27 -34q-1 -12 -15 -59q-15 -51 -19 -79q-8 -57 -50 -298q-2 -37 9 -41q14 -5 67 -2q57 3 63 13q2 3 10 185q1 39 19 36q20 -4 25 -21q1 -5 -2 -104q-3 -94 3 -98q12 -9 61 -5q45 5 45 -18t-43 -23q-10 0 -33 2q-20 2 -25 1 q-12 -2 -14 -133q-2 -144 -1 -140q-4 -20 -21 -20q-26 0 -27 23q5 261 4 264q-14 2 -122 -2q-54 0 -61 18z" />
<glyph unicode="&#xbd;" horiz-adv-x="1175" d="M86 0q26 4 62 54q13 18 70 98q78 111 122 171q185 260 320 443q123 165 235 333q117 173 139 203q56 77 69 128q12 46 -19 26q-4 -3 -420 -594q-45 -64 -195 -273q-126 -177 -182 -258q-121 -174 -198 -291q-29 -44 -3 -40zM125 1324q11 27 80 102q73 80 98 81 q34 2 42 -24q13 -40 -5 -262q-14 -178 -13 -230q5 -254 -2 -245q9 -12 42 -11q56 0 56 -24q0 -27 -42 -27l-205 2q-12 0 -24 6q-17 9 -13 23q5 14 27 16q7 1 20 1q15 -1 20 -1q56 2 63 11q-12 -14 24 585q6 102 -1 114q-6 11 -65 -69q-64 -86 -80 -87q-39 -4 -22 39zM753 17 q5 48 139 236q108 153 108 303q0 98 -30 156q-31 60 -81 50q-69 -15 -80 -91q-9 -91 -29 -91q-25 0 -25 34q0 23 18 90q8 28 35 58q36 40 79 40q71 0 111 -59q50 -73 49 -190q-1 -121 -97 -290q4 9 -87 -138q-52 -83 -44 -94q9 -10 102 -5q106 7 109 6q29 -3 28 -27 q-1 -16 -22 -26q-12 -6 -235 0q-17 0 -31 9q-19 11 -17 29z" />
<glyph unicode="&#xbe;" horiz-adv-x="1175" d="M86 0q26 4 62 54q13 18 70 98q78 111 122 171q185 260 320 443q123 165 235 333q117 173 139 203q56 77 69 128q12 46 -19 26q-4 -3 -420 -594q-45 -64 -195 -273q-126 -177 -182 -258q-121 -174 -198 -291q-29 -44 -3 -40zM138 1335q0 26 44 89q40 56 122 56 q72 0 102 -64q29 -63 0 -142q-61 -170 -65 -154q3 -12 32 -39q32 -30 46 -59q39 -80 39 -152q0 -96 -42 -146q-57 -67 -140 -67q-60 0 -103 38q-42 37 -34 55q7 16 25 10q15 -9 45 -30q43 -27 66 -27q46 -1 83 30q46 40 51 113t-27 142q-26 56 -57 77q-53 37 -53 36 q-3 14 26 49q24 30 71 150q16 40 -3 86q-18 47 -54 48q-84 3 -118 -80q-13 -32 -26 -40q-30 -17 -30 21zM729 279q-8 20 74 493q2 43 26 42q29 -1 27 -34q-1 -12 -15 -59q-15 -51 -19 -79q-8 -57 -50 -298q-2 -37 9 -41q14 -5 67 -2q57 3 63 13q2 3 10 185q1 39 19 36 q20 -4 25 -21q1 -5 -2 -104q-3 -94 3 -98q12 -9 61 -5q45 5 45 -18t-43 -23q-10 0 -33 2q-20 2 -25 1q-12 -2 -14 -133q-2 -144 -1 -140q-4 -20 -21 -20q-26 0 -27 23q5 261 4 264q-14 2 -122 -2q-54 0 -61 18z" />
<glyph unicode="&#xbf;" horiz-adv-x="523" d="M60 68q0 95 89 281q69 145 73 230q5 90 5 186q0 49 -1 112v63q0 46 29 61q29 14 29 -45v-175q-1 -124 -7 -215q-6 -115 -53 -207q-101 -201 -106 -275q-9 -146 60 -216q53 -67 157 1q31 19 58 71q25 46 33 47q37 8 34 -44q-5 -65 -102 -132q-39 -28 -102 -34 q-80 -8 -123 39q-73 73 -73 252zM198 1245q0 59 58 58q69 -2 65 -60q-2 -29 -23 -51q-9 -10 -41 -10t-44 18q-15 22 -15 45z" />
<glyph unicode="&#xc0;" horiz-adv-x="656" d="M89 22q-9 15 32 263q7 45 32 243q23 191 40 284q7 44 54 354q12 84 19 110q8 34 21 80q31 110 56 110q29 0 50 -61q39 -113 52 -193q4 -21 28 -153q18 -100 20 -125q2 -22 12 -110q13 -114 21 -189q31 -296 50 -571v-20q0 -19 -6 -29q-10 -16 -29 -18q-41 -4 -38 19 q27 172 -15 346q0 14 -103 32q-103 19 -172 -15q-21 -10 -33 -70q-28 -129 -31 -204q-1 -18 -1 -42q1 -30 1 -34q-1 -31 -12 -31q-34 0 -48 24zM192 463q2 -19 17 -21q270 -6 270 21q3 199 -43 541q-49 361 -89 349q-10 -2 -40 -177q-3 -19 -24 -122q-22 -107 -35 -177 q-13 -75 -30 -204q-14 -123 -19 -149q-9 -42 -7 -61zM249 1816q0 25 22 35q28 13 56 -37q6 -14 21 -47q14 -32 22 -47q84 -147 61 -163q-13 -9 -70 70q-16 20 -79 117q-32 52 -33 72z" />
<glyph unicode="&#xc1;" horiz-adv-x="656" d="M89 22q-9 15 32 263q7 45 32 243q23 191 40 284q7 44 54 354q12 84 19 110q8 34 21 80q31 110 56 110q29 0 50 -61q39 -113 52 -193q4 -21 28 -153q18 -100 20 -125q2 -22 12 -110q13 -114 21 -189q31 -296 50 -571v-20q0 -19 -6 -29q-10 -16 -29 -18q-41 -4 -38 19 q27 172 -15 346q0 14 -103 32q-103 19 -172 -15q-21 -10 -33 -70q-28 -129 -31 -204q-1 -18 -1 -42q1 -30 1 -34q-1 -31 -12 -31q-34 0 -48 24zM192 463q2 -19 17 -21q270 -6 270 21q3 199 -43 541q-49 361 -89 349q-10 -2 -40 -177q-3 -19 -24 -122q-22 -107 -35 -177 q-13 -75 -30 -204q-14 -123 -19 -149q-9 -42 -7 -61zM340 1580q-24 16 61 163q8 15 21 47q15 33 22 47q28 50 56 37q22 -10 22 -35q-1 -20 -33 -72q-63 -97 -79 -117q-57 -79 -70 -70z" />
<glyph unicode="&#xc2;" horiz-adv-x="656" d="M89 22q-9 15 32 263q7 45 32 243q23 191 40 284q7 44 54 354q12 84 19 110q8 34 21 80q31 110 56 110q29 0 50 -61q39 -113 52 -193q4 -21 28 -153q18 -100 20 -125q2 -22 12 -110q13 -114 21 -189q31 -296 50 -571v-20q0 -19 -6 -29q-10 -16 -29 -18q-41 -4 -38 19 q27 172 -15 346q0 14 -103 32q-103 19 -172 -15q-21 -10 -33 -70q-28 -129 -31 -204q-1 -18 -1 -42q1 -30 1 -34q-1 -31 -12 -31q-34 0 -48 24zM192 463q2 -19 17 -21q270 -6 270 21q3 199 -43 541q-49 361 -89 349q-10 -2 -40 -177q-3 -19 -24 -122q-22 -107 -35 -177 q-13 -75 -30 -204q-14 -123 -19 -149q-9 -42 -7 -61zM228 1586q10 -14 25 0q18 15 44 60q58 110 63 110q5 2 19 -35q18 -43 36 -89q25 -54 45 -51q19 2 16 25q-2 19 -72 157l-16 30q-3 7 -8 15q-8 13 -18 13h-1q-5 0 -10 -4q-12 -9 -98 -164l-15 -27q-14 -33 -10 -40z" />
<glyph unicode="&#xc3;" horiz-adv-x="656" d="M89 22q-9 15 32 263q7 45 32 243q23 191 40 284q7 44 54 354q12 84 19 110q8 34 21 80q31 110 56 110q29 0 50 -61q39 -113 52 -193q4 -21 28 -153q18 -100 20 -125q2 -22 12 -110q13 -114 21 -189q31 -296 50 -571v-20q0 -19 -6 -29q-10 -16 -29 -18q-41 -4 -38 19 q27 172 -15 346q0 14 -103 32q-103 19 -172 -15q-21 -10 -33 -70q-28 -129 -31 -204q-1 -18 -1 -42q1 -30 1 -34q-1 -31 -12 -31q-34 0 -48 24zM165 1621q1 38 26 69q26 35 75 33q31 -2 64 -36q8 -8 20 -23q12 -16 19 -23q37 -36 80 -30q32 4 32 62q0 8 -12 23q-10 13 -3 27 q5 11 22 8q19 -4 26 -24q23 -63 -17 -103q-28 -28 -61 -28q-34 0 -65 18q-23 14 -49 40q-33 36 -37 40q-28 19 -48 12q-31 -12 -32 -42q-1 -10 4 -25q6 -15 6 -19q1 -23 -19 -26q-32 -3 -31 47zM192 463q2 -19 17 -21q270 -6 270 21q3 199 -43 541q-49 361 -89 349 q-10 -2 -40 -177q-3 -19 -24 -122q-22 -107 -35 -177q-13 -75 -30 -204q-14 -123 -19 -149q-9 -42 -7 -61z" />
<glyph unicode="&#xc4;" horiz-adv-x="656" d="M89 22q-9 15 32 263q7 45 32 243q23 191 40 284q7 44 54 354q12 84 19 110q8 34 21 80q31 110 56 110q29 0 50 -61q39 -113 52 -193q4 -21 28 -153q18 -100 20 -125q2 -22 12 -110q13 -114 21 -189q31 -296 50 -571v-20q0 -19 -6 -29q-10 -16 -29 -18q-41 -4 -38 19 q27 172 -15 346q0 14 -103 32q-103 19 -172 -15q-21 -10 -33 -70q-28 -129 -31 -204q-1 -18 -1 -42q1 -30 1 -34q-1 -31 -12 -31q-34 0 -48 24zM192 463q2 -19 17 -21q270 -6 270 21q3 199 -43 541q-49 361 -89 349q-10 -2 -40 -177q-3 -19 -24 -122q-22 -107 -35 -177 q-13 -75 -30 -204q-14 -123 -19 -149q-9 -42 -7 -61zM195 1640q0 40 52 43q11 0 31 -23q22 -25 7 -49q-19 -29 -43 -27q-25 2 -34 13q-13 15 -13 43zM438 1655q20 30 43 27q25 -2 34 -13q13 -15 13 -43q0 -39 -51 -42q-11 -1 -32 23q-22 25 -7 48z" />
<glyph unicode="&#xc5;" horiz-adv-x="656" d="M89 22q-9 15 32 263q7 45 32 243q23 191 40 284q7 44 54 354q12 84 19 110q8 34 21 80q31 110 56 110q29 0 50 -61q39 -113 52 -193q4 -21 28 -153q18 -100 20 -125q2 -22 12 -110q13 -114 21 -189q31 -296 50 -571v-20q0 -19 -6 -29q-10 -16 -29 -18q-41 -4 -38 19 q27 172 -15 346q0 14 -103 32q-103 19 -172 -15q-21 -10 -33 -70q-28 -129 -31 -204q-1 -18 -1 -42q1 -30 1 -34q-1 -31 -12 -31q-34 0 -48 24zM192 463q2 -19 17 -21q270 -6 270 21q3 199 -43 541q-49 361 -89 349q-10 -2 -40 -177q-3 -19 -24 -122q-22 -107 -35 -177 q-13 -75 -30 -204q-14 -123 -19 -149q-9 -42 -7 -61zM211 1841q-46 -68 21 -145q63 -69 99 -68q161 10 161 124q0 86 -42 131q-25 29 -105 38q-74 7 -134 -80zM262 1817q36 55 84 51q50 -5 68 -24q25 -28 25 -84q0 -73 -103 -79q-22 -1 -61 44q-44 48 -13 92z" />
<glyph unicode="&#xc6;" horiz-adv-x="908" d="M83 25q14 -24 48 -24q24 0 29 107q0 3 44 210q13 59 34 69q62 31 156 14q15 -3 47 -8q28 -4 40 -6q36 -8 36 -19q5 -39 7 -98q-2 -110 -1 -137q-4 -59 -11 -110q-4 -23 28 -20q-10 1 86 1q232 -12 228 12q0 42 -133 32q-119 -5 -134 7q-1 1 -3 5v11q-9 124 -13 254 q4 173 12 439q0 16 16 23q6 2 36 7q19 3 101 -1q21 -1 7 28t-31 30q-111 -5 -126 -1q-6 8 -15 202q3 133 -5 180l-2 70q4 81 -2 98q-3 31 123 27q132 -4 139 14q10 23 -43 27q-15 2 -43 2h-33q-38 5 -150 0q-39 -1 -49 -12q-29 -33 -50 -106q-8 -22 -63 -177 q-72 -204 -127 -422q-11 -40 -69 -250q-41 -144 -52 -209q-9 -59 -40 -172q-25 -92 -22 -97zM256 483q-2 19 8 68q11 70 65 235q17 50 49 159q25 85 42 127q1 3 40 135q41 140 50 136q3 -52 12 -581q-13 -221 -14 -293q0 -26 -235 -7q-15 2 -17 21z" />
<glyph unicode="&#xc7;" horiz-adv-x="628" d="M82 523q-2 91 1 216q3 148 3 153q0 291 72 461q26 60 89 95q75 42 157 8q91 -37 115 -116q19 -63 -1 -83q-9 -9 -24 -2q-16 7 -15 23q2 49 -30 84q-40 43 -117 47q-104 6 -145 -110q-43 -123 -50 -209q-8 -93 -8 -321q0 -42 6 -147q8 -145 10 -206q8 -200 62 -283 q75 -112 189 -48q43 24 75 66q30 40 31 71q6 29 31 24q12 -2 23 -10q12 -18 1 -56q-10 -40 -40 -79q-76 -101 -198 -101q-114 0 -173 119q-57 117 -64 404zM217 -287q-11 -48 88 -41q50 4 73 49q21 41 2 72q-13 22 -42 40q-32 20 -33 21q-10 12 15 43q24 31 15 56 q-8 25 -33 -8q-26 -35 -44 -72q-21 -42 -12 -50q9 -7 35 -15q29 -8 45 -19q31 -20 15 -55q-9 -18 -66 -14q-55 4 -58 -7z" />
<glyph unicode="&#xc8;" horiz-adv-x="508" d="M109 1344q-9 124 46 126q112 5 150 0h33q28 0 43 -2q53 -4 43 -27q-7 -18 -139 -14q-126 4 -123 -27l7 -297q10 -243 16 -254q-1 3 127 2q16 -1 31 -30q14 -29 -7 -28q-81 4 -101 1q-30 -5 -36 -7q-16 -7 -16 -23q-15 -539 -15 -583q1 -111 19 -126q15 -12 134 -7 q133 10 133 -32q4 -24 -228 -14q-94 -3 -99 1q-3 5 -4 119q-1 24 1 152q2 145 2 193q-3 701 -17 877zM174 1816q0 25 22 35q28 13 56 -37q6 -14 21 -47q14 -32 22 -47q84 -147 61 -163q-13 -9 -70 70q-16 20 -79 117q-32 52 -33 72z" />
<glyph unicode="&#xc9;" horiz-adv-x="508" d="M109 1344q-9 124 46 126q112 5 150 0h33q28 0 43 -2q53 -4 43 -27q-7 -18 -139 -14q-126 4 -123 -27l7 -297q10 -243 16 -254q-1 3 127 2q16 -1 31 -30q14 -29 -7 -28q-81 4 -101 1q-30 -5 -36 -7q-16 -7 -16 -23q-15 -539 -15 -583q1 -111 19 -126q15 -12 134 -7 q133 10 133 -32q4 -24 -228 -14q-94 -3 -99 1q-3 5 -4 119q-1 24 1 152q2 145 2 193q-3 701 -17 877zM209 1571q-24 16 61 163q8 15 21 47q15 33 22 47q28 50 56 37q22 -10 22 -35q-1 -20 -33 -72q-63 -97 -79 -117q-57 -79 -70 -70z" />
<glyph unicode="&#xca;" horiz-adv-x="508" d="M109 1344q-9 124 46 126q112 5 150 0h33q28 0 43 -2q53 -4 43 -27q-7 -18 -139 -14q-126 4 -123 -27l7 -297q10 -243 16 -254q-1 3 127 2q16 -1 31 -30q14 -29 -7 -28q-81 4 -101 1q-30 -5 -36 -7q-16 -7 -16 -23q-15 -539 -15 -583q1 -111 19 -126q15 -12 134 -7 q133 10 133 -32q4 -24 -228 -14q-94 -3 -99 1q-3 5 -4 119q-1 24 1 152q2 145 2 193q-3 701 -17 877zM124 1576q11 -17 29 0q20 17 50 69q67 126 73 126q5 2 21 -40q21 -50 42 -103q28 -62 51 -58q22 2 19 28q-2 22 -83 181l-18 34q-4 8 -10 17q-9 15 -20 15h-1q-6 1 -12 -4 q-14 -10 -112 -188q-12 -21 -17 -32q-17 -38 -12 -45z" />
<glyph unicode="&#xcb;" horiz-adv-x="514" d="M100 1644q0 40 52 43q11 0 31 -23q22 -25 7 -49q-19 -29 -43 -27q-25 2 -34 13q-13 15 -13 43zM115 1344q-9 124 46 126q112 5 150 0h33q28 0 43 -2q53 -4 43 -27q-7 -18 -139 -14q-126 4 -123 -27l7 -297q10 -243 16 -254q-1 3 127 2q16 -1 31 -30q14 -29 -7 -28 q-81 4 -101 1q-30 -5 -36 -7q-16 -7 -16 -23q-15 -539 -15 -583q1 -111 19 -126q15 -12 134 -7q133 10 133 -32q4 -24 -228 -14q-94 -3 -99 1q-3 5 -4 119q-1 24 1 152q2 145 2 193q-3 701 -17 877zM343 1659q20 30 43 27q25 -2 34 -13q13 -15 13 -43q0 -39 -51 -42 q-11 -1 -32 23q-22 25 -7 48z" />
<glyph unicode="&#xcc;" horiz-adv-x="395" d="M62 21q-2 31 37 32q21 -1 49 0q18 1 22 15q3 8 3 42q2 101 2 134q0 24 2 79q2 49 2 77q0 -3 1 130q1 113 -3 205q-4 91 -6 205q-2 136 -2 140l2 203q0 132 -5 138q-2 3 -84 -3q-12 -1 -17 12t-1 26q3 10 126 11q18 0 59 1h46q36 0 36 -18q0 -27 -20 -28q-19 -2 -32 0 q-48 0 -53 -7q-13 -16 -13 -188q0 -389 6 -467q4 -69 4 -597q-9 -87 10 -102q10 -9 67 -11q35 -2 34 -27q0 -23 -42 -23h-149q-80 0 -81 21zM76 1843q0 25 22 35q28 13 56 -37q6 -14 21 -47q14 -32 22 -47q84 -147 61 -163q-13 -9 -70 70q-16 20 -79 117q-32 52 -33 72z" />
<glyph unicode="&#xcd;" horiz-adv-x="395" d="M62 21q-2 31 37 32q21 -1 49 0q18 1 22 15q3 8 3 42q2 101 2 134q0 24 2 79q2 49 2 77q0 -3 1 130q1 113 -3 205q-4 91 -6 205q-2 136 -2 140l2 203q0 132 -5 138q-2 3 -84 -3q-12 -1 -17 12t-1 26q3 10 126 11q18 0 59 1h46q36 0 36 -18q0 -27 -20 -28q-19 -2 -32 0 q-48 0 -53 -7q-13 -16 -13 -188q0 -389 6 -467q4 -69 4 -597q-9 -87 10 -102q10 -9 67 -11q35 -2 34 -27q0 -23 -42 -23h-149q-80 0 -81 21zM93 1580q-24 16 61 163q8 15 21 47q15 33 22 47q28 50 56 37q22 -10 22 -35q-1 -20 -33 -72q-63 -97 -79 -117q-57 -79 -70 -70z " />
<glyph unicode="&#xce;" horiz-adv-x="431" d="M65 1603q11 -17 29 0q20 17 50 69q67 126 73 126q5 2 21 -40q21 -50 42 -103q28 -62 51 -58q22 2 19 28q-2 22 -83 181l-18 34q-4 8 -10 17q-9 15 -20 15h-1q-6 1 -12 -4q-14 -10 -112 -188q-12 -21 -17 -32q-17 -38 -12 -45zM98 21q-2 31 37 32q21 -1 49 0q18 1 22 15 q3 8 3 42q2 101 2 134q0 24 2 79q2 49 2 77q0 -3 1 130q1 113 -3 205q-4 91 -6 205q-2 136 -2 140l2 203q0 132 -5 138q-2 3 -84 -3q-12 -1 -17 12t-1 26q3 10 126 11q18 0 59 1h46q36 0 36 -18q0 -27 -20 -28q-19 -2 -32 0q-48 0 -53 -7q-13 -16 -13 -188q0 -389 6 -467 q4 -69 4 -597q-9 -87 10 -102q10 -9 67 -11q35 -2 34 -27q0 -23 -42 -23h-149q-80 0 -81 21z" />
<glyph unicode="&#xcf;" horiz-adv-x="453" d="M60 1648q0 40 52 43q11 0 31 -23q22 -25 7 -49q-19 -29 -43 -27q-25 2 -34 13q-13 15 -13 43zM91 21q-2 31 37 32q21 -1 49 0q18 1 22 15q3 8 3 42q2 101 2 134q0 24 2 79q2 49 2 77q0 -3 1 130q1 113 -3 205q-4 91 -6 205q-2 136 -2 140l2 203q0 132 -5 138q-2 3 -84 -3 q-12 -1 -17 12t-1 26q3 10 126 11q18 0 59 1h46q36 0 36 -18q0 -27 -20 -28q-19 -2 -32 0q-48 0 -53 -7q-13 -16 -13 -188q0 -389 6 -467q4 -69 4 -597q-9 -87 10 -102q10 -9 67 -11q35 -2 34 -27q0 -23 -42 -23h-149q-80 0 -81 21zM303 1663q20 30 43 27q25 -2 34 -13 q13 -15 13 -43q0 -39 -51 -42q-11 -1 -32 23q-22 25 -7 48z" />
<glyph unicode="&#xd0;" horiz-adv-x="651" d="M77 697q4 -7 44 -3q23 3 46 1q3 -8 1 -70q-14 -596 -7 -609q17 -19 115 -15q117 4 170 72q92 119 129 346q16 103 16 275q0 333 -55 483q-65 176 -114 223q-75 71 -181 71q-99 5 -99 -26q4 -57 11 -141q10 -152 10 -243q7 -293 4 -305q-9 -10 -60 -9q-19 2 -28 -18 q-9 -18 -2 -32zM204 1399q2 21 40 22q131 1 210 -163q77 -159 93 -445q16 -301 -43 -495q-43 -137 -110 -207q-81 -85 -174 -37q-20 15 -12 316q7 292 16 309q24 10 118 0q40 3 67 8q10 2 7 21q-4 20 -15 21q-174 1 -177 5q-14 8 -14 311z" />
<glyph unicode="&#xd1;" horiz-adv-x="662" d="M100 95l3 685v251q2 316 2 359q0 81 32 82q28 1 58 -104q2 -8 55 -231q53 -226 62 -259q7 -27 34 -120q28 -101 45 -163q19 -68 43 -162q25 -96 27 -103q2 -8 12 -49q9 -35 15 -54q18 -62 23 -47q3 7 3 124l-9 618l-5 297q-2 185 -2 210q1 40 26 40q32 0 32 -67 q0 -58 -3 -742q0 -32 5 -206q1 -24 0 -81q-1 -65 -1 -85q0 -15 3 -76q2 -47 1 -71q-5 -83 -8 -95q-10 -46 -38 -46q-20 0 -54 120q-187 672 -201 742q-70 347 -73 358q-8 40 -20 72q-14 38 -17 12q-2 -21 2 -90q5 -82 5 -106v-526q0 -160 2 -293q4 -267 2 -269 q-10 -17 -29 -19q-19 -1 -25 10q-7 13 -7 84zM154 1640q1 38 26 69q26 35 75 33q31 -2 64 -36q8 -8 20 -23q12 -16 19 -23q37 -36 80 -30q32 4 32 62q0 8 -12 23q-10 13 -3 27q5 11 22 8q19 -4 26 -24q23 -63 -17 -103q-28 -28 -61 -28q-34 0 -65 18q-23 14 -49 40 q-33 36 -37 40q-28 19 -48 12q-31 -12 -32 -42q-1 -10 4 -25q6 -15 6 -19q1 -23 -19 -26q-32 -3 -31 47z" />
<glyph unicode="&#xd2;" horiz-adv-x="626" d="M82 792q7 255 11 302q13 140 36 215q25 83 62 120q40 41 108 39q59 -1 97 -36q45 -41 71 -131q48 -165 54 -220q25 -223 19 -470q-17 -207 -23 -249q-20 -134 -53 -216q-28 -68 -56 -97q-50 -51 -109 -49q-71 3 -120 77q-25 40 -56 169q-16 68 -32 296q-11 177 -9 250z M139 896q-6 -244 2 -347q13 -166 30 -252q30 -146 36 -164q30 -79 92 -81q72 -1 121 124q44 116 52 242q13 216 13 292q0 25 1 81q1 72 -6 208q-6 112 -25 184q-32 123 -46 149q-48 86 -110 88q-146 4 -160 -524zM233 1816q0 25 22 35q28 13 56 -37q6 -14 21 -47 q14 -32 22 -47q84 -147 61 -163q-13 -9 -70 70q-16 20 -79 117q-32 52 -33 72z" />
<glyph unicode="&#xd3;" horiz-adv-x="626" d="M82 792q7 255 11 302q13 140 36 215q25 83 62 120q40 41 108 39q59 -1 97 -36q45 -41 71 -131q48 -165 54 -220q25 -223 19 -470q-17 -207 -23 -249q-20 -134 -53 -216q-28 -68 -56 -97q-50 -51 -109 -49q-71 3 -120 77q-25 40 -56 169q-16 68 -32 296q-11 177 -9 250z M139 896q-6 -244 2 -347q13 -166 30 -252q30 -146 36 -164q30 -79 92 -81q72 -1 121 124q44 116 52 242q13 216 13 292q0 25 1 81q1 72 -6 208q-6 112 -25 184q-32 123 -46 149q-48 86 -110 88q-146 4 -160 -524zM263 1576q-24 16 61 163q8 15 21 47q15 33 22 47 q28 50 56 37q22 -10 22 -35q-1 -20 -33 -72q-63 -97 -79 -117q-57 -79 -70 -70z" />
<glyph unicode="&#xd4;" horiz-adv-x="626" d="M82 792q7 255 11 302q13 140 36 215q25 83 62 120q40 41 108 39q59 -1 97 -36q45 -41 71 -131q48 -165 54 -220q25 -223 19 -470q-17 -207 -23 -249q-20 -134 -53 -216q-28 -68 -56 -97q-50 -51 -109 -49q-71 3 -120 77q-25 40 -56 169q-16 68 -32 296q-11 177 -9 250z M139 896q-6 -244 2 -347q13 -166 30 -252q30 -146 36 -164q30 -79 92 -81q72 -1 121 124q44 116 52 242q13 216 13 292q0 25 1 81q1 72 -6 208q-6 112 -25 184q-32 123 -46 149q-48 86 -110 88q-146 4 -160 -524zM176 1592q11 -17 29 0q20 17 50 69q67 126 73 126 q5 2 21 -40q21 -50 42 -103q28 -62 51 -58q22 2 19 28q-2 22 -83 181l-18 34q-4 8 -10 17q-9 15 -20 15h-1q-6 1 -12 -4q-14 -10 -112 -188q-12 -21 -17 -32q-17 -38 -12 -45z" />
<glyph unicode="&#xd5;" horiz-adv-x="626" d="M82 792q7 255 11 302q13 140 36 215q25 83 62 120q40 41 108 39q59 -1 97 -36q45 -41 71 -131q48 -165 54 -220q25 -223 19 -470q-17 -207 -23 -249q-20 -134 -53 -216q-28 -68 -56 -97q-50 -51 -109 -49q-71 3 -120 77q-25 40 -56 169q-16 68 -32 296q-11 177 -9 250z M135 1636q1 38 26 69q26 35 75 33q31 -2 64 -36q8 -8 20 -23q12 -16 19 -23q37 -36 80 -30q32 4 32 62q0 8 -12 23q-10 13 -3 27q5 11 22 8q19 -4 26 -24q23 -63 -17 -103q-28 -28 -61 -28q-34 0 -65 18q-23 14 -49 40q-33 36 -37 40q-28 19 -48 12q-31 -12 -32 -42 q-1 -10 4 -25q6 -15 6 -19q1 -23 -19 -26q-32 -3 -31 47zM139 896q-6 -244 2 -347q13 -166 30 -252q30 -146 36 -164q30 -79 92 -81q72 -1 121 124q44 116 52 242q13 216 13 292q0 25 1 81q1 72 -6 208q-6 112 -25 184q-32 123 -46 149q-48 86 -110 88q-146 4 -160 -524z " />
<glyph unicode="&#xd6;" horiz-adv-x="626" d="M82 792q7 255 11 302q13 140 36 215q25 83 62 120q40 41 108 39q59 -1 97 -36q45 -41 71 -131q48 -165 54 -220q25 -223 19 -470q-17 -207 -23 -249q-20 -134 -53 -216q-28 -68 -56 -97q-50 -51 -109 -49q-71 3 -120 77q-25 40 -56 169q-16 68 -32 296q-11 177 -9 250z M139 896q-6 -244 2 -347q13 -166 30 -252q30 -146 36 -164q30 -79 92 -81q72 -1 121 124q44 116 52 242q13 216 13 292q0 25 1 81q1 72 -6 208q-6 112 -25 184q-32 123 -46 149q-48 86 -110 88q-146 4 -160 -524zM142 1640q0 40 52 43q11 0 31 -23q22 -25 7 -49 q-19 -29 -43 -27q-25 2 -34 13q-13 15 -13 43zM385 1655q20 30 43 27q25 -2 34 -13q13 -15 13 -43q0 -39 -51 -42q-11 -1 -32 23q-22 25 -7 48z" />
<glyph unicode="&#xd7;" horiz-adv-x="676" d="M87 413q-27 -52 12 -53q8 -2 125 117q90 106 110 107q13 -7 157 -154q95 -93 103 -29q4 33 -79 105q-33 30 -94 90q-24 24 -24 40q8 15 166 158q53 54 49 71q-7 25 -30 27q-43 6 -133 -97q-99 -109 -111 -98l-135 143q-61 66 -82 60q-23 -6 -29 -38q-7 -34 70 -110 q124 -114 119 -123q8 -3 -142 -145q-33 -36 -52 -71z" />
<glyph unicode="&#xd8;" horiz-adv-x="626" d="M82 792q-2 -73 9 -251q16 -227 32 -295q12 -51 14 -79q2 -23 -16 -79q-41 -131 3 -145q12 -4 17 16q11 55 15 66q9 54 13 60q3 4 10 -8q49 -75 120 -77q59 -2 109 49q28 28 56 96q33 83 53 217q6 41 23 249q6 246 -19 470q-8 76 -48 201q-3 11 6 46q6 25 24 92 q17 62 19 71q7 27 -8 33q-14 7 -25 -7q-4 -5 -34 -114q-7 -24 -15 -23q-4 1 -20 22q-19 25 -24 30q-38 34 -97 36q-68 2 -108 -39q-37 -37 -62 -120q-23 -76 -36 -216q-4 -45 -11 -301zM139 896q14 527 160 524q62 -2 110 -88q11 -21 12 -45q1 -35 -55 -255 q-189 -742 -193 -747q-11 -16 -32 264q-8 103 -2 347zM194 177q-3 11 41 158q79 264 124 459q15 64 52 247q32 156 34 160q4 6 10 -19q19 -71 25 -183q7 -136 6 -208q-1 -57 -1 -82q0 -75 -13 -292q-8 -126 -52 -241q-49 -126 -121 -124q-62 2 -92 81q4 -10 -13 44z" />
<glyph unicode="&#xd9;" horiz-adv-x="633" d="M90 481v456q0 126 2 270q0 42 1 90q1 42 1 46q0 13 -2 47q-2 35 -2 47q0 16 11 26q9 9 18 8q30 -2 33 -38q-1 11 -1 -106q-12 -555 -7 -649q13 -289 13 -292q14 -123 26 -168q21 -77 57 -111q52 -51 101 -48q60 4 87 40q47 63 60 195q5 54 0 219l-1 118q-5 189 -3 274 v230q-8 273 -9 295q-1 16 9 30q10 13 22 13q25 0 32 -31q5 -25 3 -171q-1 -68 -4 -315q2 -361 2 -379v-255q3 -107 -34 -197q-29 -72 -60 -94q-43 -31 -119 -31q-70 0 -126 62q-49 55 -78 151q-28 92 -32 268zM189 1816q0 25 22 35q28 13 56 -37q6 -14 21 -47q14 -32 22 -47 q84 -147 61 -163q-13 -9 -70 70q-16 20 -79 117q-32 52 -33 72z" />
<glyph unicode="&#xda;" horiz-adv-x="633" d="M90 481v456q0 126 2 270q0 42 1 90q1 42 1 46q0 13 -2 47q-2 35 -2 47q0 16 11 26q9 9 18 8q30 -2 33 -38q-1 11 -1 -106q-12 -555 -7 -649q13 -289 13 -292q14 -123 26 -168q21 -77 57 -111q52 -51 101 -48q60 4 87 40q47 63 60 195q5 54 0 219l-1 118q-5 189 -3 274 v230q-8 273 -9 295q-1 16 9 30q10 13 22 13q25 0 32 -31q5 -25 3 -171q-1 -68 -4 -315q2 -361 2 -379v-255q3 -107 -34 -197q-29 -72 -60 -94q-43 -31 -119 -31q-70 0 -126 62q-49 55 -78 151q-28 92 -32 268zM256 1576q-24 16 61 163q8 15 21 47q15 33 22 47q28 50 56 37 q22 -10 22 -35q-1 -20 -33 -72q-63 -97 -79 -117q-57 -79 -70 -70z" />
<glyph unicode="&#xdb;" horiz-adv-x="633" d="M90 481v456q0 126 2 270q0 42 1 90q1 42 1 46q0 13 -2 47q-2 35 -2 47q0 16 11 26q9 9 18 8q30 -2 33 -38q-1 11 -1 -106q-12 -555 -7 -649q13 -289 13 -292q14 -123 26 -168q21 -77 57 -111q52 -51 101 -48q60 4 87 40q47 63 60 195q5 54 0 219l-1 118q-5 189 -3 274 v230q-8 273 -9 295q-1 16 9 30q10 13 22 13q25 0 32 -31q5 -25 3 -171q-1 -68 -4 -315q2 -361 2 -379v-255q3 -107 -34 -197q-29 -72 -60 -94q-43 -31 -119 -31q-70 0 -126 62q-49 55 -78 151q-28 92 -32 268zM173 1592q11 -17 29 0q20 17 50 69q67 126 73 126q5 2 21 -40 q21 -50 42 -103q28 -62 51 -58q22 2 19 28q-2 22 -83 181l-18 34q-4 8 -10 17q-9 15 -20 15h-1q-6 1 -12 -4q-14 -10 -112 -188q-12 -21 -17 -32q-17 -38 -12 -45z" />
<glyph unicode="&#xdc;" horiz-adv-x="633" d="M90 481v456q0 126 2 270q0 42 1 90q1 42 1 46q0 13 -2 47q-2 35 -2 47q0 16 11 26q9 9 18 8q30 -2 33 -38q-1 11 -1 -106q-12 -555 -7 -649q13 -289 13 -292q14 -123 26 -168q21 -77 57 -111q52 -51 101 -48q60 4 87 40q47 63 60 195q5 54 0 219l-1 118q-5 189 -3 274 v230q-8 273 -9 295q-1 16 9 30q10 13 22 13q25 0 32 -31q5 -25 3 -171q-1 -68 -4 -315q2 -361 2 -379v-255q3 -107 -34 -197q-29 -72 -60 -94q-43 -31 -119 -31q-70 0 -126 62q-49 55 -78 151q-28 92 -32 268zM151 1660q0 40 52 43q11 0 31 -23q22 -25 7 -49 q-19 -29 -43 -27q-25 2 -34 13q-13 15 -13 43zM394 1675q20 30 43 27q25 -2 34 -13q13 -15 13 -43q0 -39 -51 -42q-11 -1 -32 23q-22 25 -7 48z" />
<glyph unicode="&#xdd;" horiz-adv-x="494" d="M74 1443q7 34 41 23q25 -9 76 -325q42 -259 50 -275q12 -24 62 254q53 309 51 301q12 48 37 48q33 0 20 -77q-2 -17 -30 -135q-30 -127 -40 -178q-9 -48 -40 -171q-29 -114 -33 -138q-9 -57 -5 -352q1 -43 5 -217q4 -166 4 -170q0 -31 -22 -31q-35 0 -35 35v34 q-1 37 -2 67q-1 106 0 188q3 188 -1 423q-1 73 -56 341q1 -6 -59 232q-27 105 -23 123zM187 1569q-23 15 56 152q8 14 20 43q14 31 20 44q26 47 53 34q20 -9 20 -32q-1 -19 -31 -67q-58 -90 -73 -109q-53 -73 -65 -65z" />
<glyph unicode="&#xde;" horiz-adv-x="590" d="M104 796q-4 -180 11 -428l1 -289q0 -10 -2 -61q-1 -19 14 -18q55 3 46 126q-19 248 -5 271q-6 -10 151 8q84 9 125 35q75 49 72 204q1 -7 -14 237q-9 138 -115 162q-36 9 -131 15q-88 -2 -91 18q1 17 4 275q-3 102 -6 106q-9 15 -27 13q-19 -3 -19 -27q0 -9 1 -68 q2 -62 2 -85q0 -18 -7 -195q-8 -201 -10 -299zM158 739q0 257 7 276q12 9 151 -14q101 -3 128 -58q22 -43 26 -226q5 -206 -53 -234q-54 -26 -151 -29q-87 -2 -97 10q-8 9 -11 275z" />
<glyph unicode="&#xdf;" horiz-adv-x="596" d="M100 85q1 -67 18 -79q13 -10 25 -4t15 28q2 16 1 64v71q12 518 12 503q-6 156 0 379q1 41 0 265q0 95 13 126q18 40 74 36q53 -4 79 -39q54 -72 52 -187q-2 -75 -23 -138q-20 -61 -61 -127q-81 -110 -8 -181q189 -186 163 -468q-17 -174 -117 -257q-31 -26 -62 -20 q-13 2 -46 20q-20 11 -23 -10t13 -42q20 -25 83 -25q45 0 104 70q73 86 100 277q14 112 -22 240q-29 103 -69 158q-15 19 -73 74q-29 28 -29 70q0 22 58 124q61 105 66 223q6 145 -74 243q-40 49 -104 58q-70 11 -112 -40q-46 -57 -46 -174l8 -769q-12 -358 -12 -383 q0 -4 -2 -35q-1 -30 -1 -51z" />
<glyph unicode="&#xe0;" horiz-adv-x="579" d="M87 304q6 -165 63 -243q47 -64 159 -53q46 5 75 19q24 11 30 10q14 -1 39 -25q14 -13 42 -12t32 16q2 7 -6 19q-9 15 -21 7q-12 -7 -21 2q-8 8 -8 34q0 27 1 48q1 15 1 44v38q1 47 2 156q1 114 1 135q1 37 -6 220q-3 135 0 126q-4 12 -26 15q-23 3 -23 -9q0 -4 1 -16v-19 q1 -20 -5 -14q-48 55 -126 56q-56 1 -88 -18q-99 -59 -112 -203q-11 -120 -4 -333zM136 350q-9 171 2 275q9 77 47 130q39 55 92 55q63 1 107 -46q47 -48 47 -310q0 -332 -11 -350q-20 -34 -103 -44q-91 -12 -131 37q-39 47 -50 253zM207 1140q0 20 18 28q23 11 46 -30 q5 -11 17 -38q11 -27 18 -39q69 -120 50 -133q-11 -8 -57 57q-13 16 -65 96q-26 42 -27 59z" />
<glyph unicode="&#xe1;" horiz-adv-x="579" d="M87 304q6 -165 63 -243q47 -64 159 -53q46 5 75 19q24 11 30 10q14 -1 39 -25q14 -13 42 -12t32 16q2 7 -6 19q-9 15 -21 7q-12 -7 -21 2q-8 8 -8 34q0 27 1 48q1 15 1 44v38q1 47 2 156q1 114 1 135q1 37 -6 220q-3 135 0 126q-4 12 -26 15q-23 3 -23 -9q0 -4 1 -16v-19 q1 -20 -5 -14q-48 55 -126 56q-56 1 -88 -18q-99 -59 -112 -203q-11 -120 -4 -333zM136 350q-9 171 2 275q9 77 47 130q39 55 92 55q63 1 107 -46q47 -48 47 -310q0 -332 -11 -350q-20 -34 -103 -44q-91 -12 -131 37q-39 47 -50 253zM241 940q-19 13 50 131q6 12 16 38 q13 26 18 38q23 40 45 30q18 -9 18 -29q-1 -16 -27 -58q-50 -78 -63 -94q-46 -64 -57 -56z" />
<glyph unicode="&#xe2;" horiz-adv-x="579" d="M87 304q6 -165 63 -243q47 -64 159 -53q46 5 75 19q24 11 30 10q14 -1 39 -25q14 -13 42 -12t32 16q2 7 -6 19q-9 15 -21 7q-12 -7 -21 2q-8 8 -8 34q0 27 1 48q1 15 1 44v38q1 47 2 156q1 114 1 135q1 37 -6 220q-3 135 0 126q-4 12 -26 15q-23 3 -23 -9q0 -4 1 -16v-19 q1 -20 -5 -14q-48 55 -126 56q-56 1 -88 -18q-99 -59 -112 -203q-11 -120 -4 -333zM136 350q-9 171 2 275q9 77 47 130q39 55 92 55q63 1 107 -46q47 -48 47 -310q0 -332 -11 -350q-20 -34 -103 -44q-91 -12 -131 37q-39 47 -50 253zM153 966q10 -15 26 0q18 16 45 62 q60 114 65 114q5 1 19 -36q19 -45 38 -93q25 -56 46 -52q20 2 17 25q-2 20 -75 163l-16 30q-3 8 -9 16q-8 13 -18 13h-1q-5 1 -10 -3q-13 -9 -101 -169q-11 -19 -15 -29q-16 -34 -11 -41z" />
<glyph unicode="&#xe3;" horiz-adv-x="579" d="M87 304q6 -165 63 -243q47 -64 159 -53q46 5 75 19q24 11 30 10q14 -1 39 -25q14 -13 42 -12t32 16q2 7 -6 19q-9 15 -21 7q-12 -7 -21 2q-8 8 -8 34q0 27 1 48q1 15 1 44v38q1 47 2 156q1 114 1 135q1 37 -6 220q-3 135 0 126q-4 12 -26 15q-23 3 -23 -9q0 -4 1 -16v-19 q1 -20 -5 -14q-48 55 -126 56q-56 1 -88 -18q-99 -59 -112 -203q-11 -120 -4 -333zM101 996q1 38 26 69q26 35 75 33q31 -2 64 -36q8 -8 20 -23q12 -16 19 -23q37 -36 80 -30q32 4 32 62q0 8 -12 23q-10 13 -3 27q5 11 22 8q19 -4 26 -24q23 -63 -17 -103q-28 -28 -61 -28 q-34 0 -65 18q-23 14 -49 40q-33 36 -37 40q-28 19 -48 12q-31 -12 -32 -42q-1 -10 4 -25q6 -15 6 -19q1 -23 -19 -26q-32 -3 -31 47zM136 350q-9 171 2 275q9 77 47 130q39 55 92 55q63 1 107 -46q47 -48 47 -310q0 -332 -11 -350q-20 -34 -103 -44q-91 -12 -131 37 q-39 47 -50 253z" />
<glyph unicode="&#xe4;" horiz-adv-x="579" d="M87 304q6 -165 63 -243q47 -64 159 -53q46 5 75 19q24 11 30 10q14 -1 39 -25q14 -13 42 -12t32 16q2 7 -6 19q-9 15 -21 7q-12 -7 -21 2q-8 8 -8 34q0 27 1 48q1 15 1 44v38q1 47 2 156q1 114 1 135q1 37 -6 220q-3 135 0 126q-4 12 -26 15q-23 3 -23 -9q0 -4 1 -16v-19 q1 -20 -5 -14q-48 55 -126 56q-56 1 -88 -18q-99 -59 -112 -203q-11 -120 -4 -333zM136 350q-9 171 2 275q9 77 47 130q39 55 92 55q63 1 107 -46q47 -48 47 -310q0 -332 -11 -350q-20 -34 -103 -44q-91 -12 -131 37q-39 47 -50 253zM137 1051q0 40 52 43q11 0 31 -23 q22 -25 7 -49q-19 -29 -43 -27q-25 2 -34 13q-13 15 -13 43zM380 1066q20 30 43 27q25 -2 34 -13q13 -15 13 -43q0 -39 -51 -42q-11 -1 -32 23q-22 25 -7 48z" />
<glyph unicode="&#xe5;" horiz-adv-x="579" d="M87 304q6 -165 63 -243q47 -64 159 -53q46 5 75 19q24 11 30 10q14 -1 39 -25q14 -13 42 -12t32 16q2 7 -6 19q-9 15 -21 7q-12 -7 -21 2q-8 8 -8 34q0 27 1 48q1 15 1 44v38q1 47 2 156q1 114 1 135q1 37 -6 220q-3 135 0 126q-4 12 -26 15q-23 3 -23 -9q0 -4 1 -16v-19 q1 -20 -5 -14q-48 55 -126 56q-56 1 -88 -18q-99 -59 -112 -203q-11 -120 -4 -333zM136 350q-9 171 2 275q9 77 47 130q39 55 92 55q63 1 107 -46q47 -48 47 -310q0 -332 -11 -350q-20 -34 -103 -44q-91 -12 -131 37q-39 47 -50 253zM186 1109q-33 -48 15 -103 q45 -50 71 -49q115 7 115 89q0 61 -30 93q-18 21 -75 28q-53 5 -96 -58zM222 1092q26 40 60 37q36 -4 49 -17q18 -21 18 -61q0 -52 -74 -56q-16 -1 -44 31q-31 35 -9 66z" />
<glyph unicode="&#xe7;" horiz-adv-x="480" d="M82 304q-2 -197 74 -260q48 -41 118 -44q76 -3 136 40q20 15 4 40q-16 26 -42 14q-56 -27 -68 -30q-56 -13 -110 21q-58 35 -62 320q-4 258 16 310q16 41 50 67q33 25 64 27q67 2 99 -24q23 -18 32 7q9 24 -15 41q-63 44 -174 11q-106 -32 -114 -209q-6 -116 -8 -331z M173 -272q-10 -46 85 -39q49 3 70 47q20 40 3 70q-13 21 -41 39q-31 19 -32 20q-10 12 14 42q23 29 15 54q-8 24 -32 -9q-25 -33 -43 -69q-20 -41 -11 -48t34 -15q27 -8 44 -18q29 -19 14 -53q-9 -18 -64 -14q-54 5 -56 -7z" />
<glyph unicode="&#xe8;" horiz-adv-x="467" d="M62 304q-2 -197 74 -261q48 -40 118 -43q76 -3 136 40q20 15 4 40q-16 26 -42 14q-55 -27 -68 -30q-56 -13 -110 21q-59 36 -62 332q0 18 17 15q58 -8 126 3q78 13 109 46q36 38 45 134q8 91 -13 138q-28 58 -58 80q-57 40 -154 11q-106 -32 -114 -209q-6 -114 -8 -331z M112 497q3 186 16 218q16 41 50 67q33 25 64 27q58 2 91 -45q25 -34 28 -110q4 -84 -32 -129q-41 -52 -198 -49q-19 1 -19 21zM143 1191q0 23 20 31q25 12 50 -32q6 -13 19 -42q13 -28 20 -41q76 -130 55 -144q-11 -8 -63 62q-14 17 -71 103q-29 46 -30 63z" />
<glyph unicode="&#xe9;" horiz-adv-x="467" d="M62 304q-2 -197 74 -261q48 -40 118 -43q76 -3 136 40q20 15 4 40q-16 26 -42 14q-55 -27 -68 -30q-56 -13 -110 21q-59 36 -62 332q0 18 17 15q58 -8 126 3q78 13 109 46q36 38 45 134q8 91 -13 138q-28 58 -58 80q-57 40 -154 11q-106 -32 -114 -209q-6 -114 -8 -331z M112 497q3 186 16 218q16 41 50 67q33 25 64 27q58 2 91 -45q25 -34 28 -110q4 -84 -32 -129q-41 -52 -198 -49q-19 1 -19 21zM190 959q-21 14 53 142q7 13 19 41q13 29 19 41q24 44 49 32q19 -8 19 -30q-1 -18 -29 -63q-55 -85 -69 -102q-49 -69 -61 -61z" />
<glyph unicode="&#xea;" horiz-adv-x="467" d="M62 304q-2 -197 74 -261q48 -40 118 -43q76 -3 136 40q20 15 4 40q-16 26 -42 14q-55 -27 -68 -30q-56 -13 -110 21q-59 36 -62 332q0 18 17 15q58 -8 126 3q78 13 109 46q36 38 45 134q8 91 -13 138q-28 58 -58 80q-57 40 -154 11q-106 -32 -114 -209q-6 -114 -8 -331z M112 497q3 186 16 218q16 41 50 67q33 25 64 27q58 2 91 -45q25 -34 28 -110q4 -84 -32 -129q-41 -52 -198 -49q-19 1 -19 21zM118 970q10 -15 25 0q18 15 44 61q60 111 65 111q4 2 18 -35q19 -44 37 -91q25 -54 45 -51q20 2 17 25q-2 19 -73 159l-16 30q-4 7 -9 15 q-8 13 -17 13h-1q-6 1 -11 -3q-12 -9 -99 -166q-10 -18 -15 -28q-15 -34 -10 -40z" />
<glyph unicode="&#xeb;" horiz-adv-x="470" d="M62 304q-2 -197 74 -261q48 -40 118 -43q76 -3 136 40q20 15 4 40q-16 26 -42 14q-55 -27 -68 -30q-56 -13 -110 21q-59 36 -62 332q0 18 17 15q58 -8 126 3q78 13 109 46q36 38 45 134q8 91 -13 138q-28 58 -58 80q-57 40 -154 11q-106 -32 -114 -209q-6 -114 -8 -331z M87 1047q0 40 52 43q11 0 31 -23q22 -25 7 -49q-19 -29 -43 -27q-25 2 -34 13q-13 15 -13 43zM112 497q3 186 16 218q16 41 50 67q33 25 64 27q58 2 91 -45q25 -34 28 -110q4 -84 -32 -129q-41 -52 -198 -49q-19 1 -19 21zM330 1062q20 30 43 27q25 -2 34 -13q13 -15 13 -43 q0 -39 -51 -42q-11 -1 -32 23q-22 25 -7 48z" />
<glyph unicode="&#xec;" horiz-adv-x="336" d="M80 1160q0 21 19 30q24 11 48 -32q5 -12 18 -40q12 -28 19 -41q72 -126 53 -140q-12 -8 -61 60q-13 17 -68 101q-27 45 -28 62zM147 835q-2 -2 1 -343q1 -38 0 -159q-1 -102 1 -149q2 -101 8 -166q1 -24 21 -16q22 10 20 38q-1 40 0 156q0 150 5 258q5 96 -1 192 q-6 98 -5 116q1 45 -18 68q-19 21 -32 5z" />
<glyph unicode="&#xed;" horiz-adv-x="339" d="M101 964q-21 14 53 142q7 13 19 40q13 29 19 41q24 44 48 32q19 -8 19 -30q0 -17 -28 -63q-55 -84 -69 -101q-49 -69 -61 -61zM150 835q-2 -2 1 -343q1 -38 0 -159q-1 -102 1 -149q2 -101 8 -166q1 -24 21 -16q22 10 20 38q-1 40 0 156q0 150 5 258q5 96 -1 192 q-6 98 -5 116q1 45 -18 68q-19 21 -32 5z" />
<glyph unicode="&#xee;" horiz-adv-x="406" d="M84 930q9 -15 24 0q17 14 42 58q56 105 61 105q5 2 18 -33q18 -42 35 -87q24 -52 43 -48q19 1 16 23q-2 19 -70 152q-7 14 -15 29q-3 6 -8 14q-8 12 -17 12h-1q-5 1 -10 -3q-12 -8 -94 -158q-10 -17 -14 -27q-14 -31 -10 -37zM185 835q-2 -2 1 -343q1 -38 0 -159 q-1 -102 1 -149q2 -101 8 -166q1 -24 21 -16q22 10 20 38q-1 40 0 156q0 150 5 258q5 96 -1 192q-6 98 -5 116q1 45 -18 68q-19 21 -32 5z" />
<glyph unicode="&#xef;" horiz-adv-x="473" d="M70 1016q0 40 52 43q11 0 31 -23q22 -25 7 -49q-19 -29 -43 -27q-25 2 -34 13q-13 15 -13 43zM211 835q-2 -2 1 -343q1 -38 0 -159q-1 -102 1 -149q2 -101 8 -166q1 -24 21 -16q22 10 20 38q-1 40 0 156q0 150 5 258q5 96 -1 192q-6 98 -5 116q1 45 -18 68q-19 21 -32 5z M313 1031q20 30 43 27q25 -2 34 -13q13 -15 13 -43q0 -39 -51 -42q-11 -1 -32 23q-22 25 -7 48z" />
<glyph unicode="&#xf0;" horiz-adv-x="442" d="M75 278q0 -159 54 -229q40 -52 93 -49q67 4 99 78q23 52 35 316q11 232 9 270q-12 227 -20 276q-8 50 -31 127q-20 70 -20 72q-2 21 63 76q15 12 8 32q-6 19 -20 23q-8 3 -42 -35q-34 -39 -39 -39q-6 0 -59 72q-59 79 -76 94q-36 33 -48 6q-11 -26 15 -57 q130 -152 130 -149q0 -3 -73 -87q-29 -32 -44 -54q-7 -9 9 -20q16 -10 25 -2q99 95 107 101q12 5 35 -122q22 -126 14 -134q-1 -1 -48 5q-50 6 -90 -20q-43 -29 -58 -75q-4 -13 -14 -88q-5 -40 -12 -176q-1 -43 -2 -212zM119 521q9 139 17 186q9 47 39 75q28 26 85 13 q54 -13 57 -76q16 -262 -21 -525q-10 -75 -26 -103q-28 -48 -69 -34q-70 23 -77 153q-11 215 -5 311z" />
<glyph unicode="&#xf1;" d="M82 715q3 127 0 121q4 11 27 15q23 3 23 -10q0 -4 -1 -16t-1 -18q0 -21 5 -15q50 59 142 59q124 0 175 -55q19 -21 37 -154q12 -88 9 -521q0 -12 2 -44t2 -43q0 -16 -11 -25q-8 -8 -16 -7q-28 2 -31 35q1 -10 1 98q2 302 -2 355q-4 59 -7 180q-1 69 -31 98 q-42 41 -123 36q-80 -5 -110 -42q-25 -33 -40 -184q-13 -140 9 -536q0 -16 -7 -29q-8 -13 -19 -13q-23 0 -29 29q-6 23 -3 159q1 63 1 365q-3 134 -2 162zM111 1018q1 38 26 69q26 35 75 33q31 -2 64 -36q8 -8 20 -23q12 -16 19 -23q37 -36 80 -30q32 4 32 62q0 8 -12 23 q-10 13 -3 27q5 11 22 8q19 -4 26 -24q23 -63 -17 -103q-28 -28 -61 -28q-34 0 -65 18q-23 14 -49 40q-33 36 -37 40q-28 19 -48 12q-31 -12 -32 -42q-1 -10 4 -25q6 -15 6 -19q1 -23 -19 -26q-32 -3 -31 47z" />
<glyph unicode="&#xf2;" horiz-adv-x="521" d="M71 333q2 -195 49 -260q37 -51 86 -66q24 -7 86 -7q67 0 106 51q46 59 51 151q2 35 2 273q-1 233 -58 301q-35 41 -62 54q-39 19 -96 4q-57 -16 -98 -68q-43 -55 -52 -130q-15 -119 -14 -303zM129 351q-1 160 15 273q9 69 55 121q40 47 75 47q53 1 89 -57q30 -50 37 -295 q9 -309 -55 -366q-37 -33 -88 -23q-49 9 -86 50q-40 45 -42 250zM165 1168q0 20 18 29q23 10 46 -31q5 -11 17 -38q11 -26 18 -39q69 -120 50 -133q-11 -8 -57 57q-14 17 -65 96q-26 43 -27 59z" />
<glyph unicode="&#xf3;" horiz-adv-x="521" d="M71 333q2 -195 49 -260q37 -51 86 -66q24 -7 86 -7q67 0 106 51q46 59 51 151q2 35 2 273q-1 233 -58 301q-35 41 -62 54q-39 19 -96 4q-57 -16 -98 -68q-43 -55 -52 -130q-15 -119 -14 -303zM129 351q-1 160 15 273q9 69 55 121q40 47 75 47q53 1 89 -57q30 -50 37 -295 q9 -309 -55 -366q-37 -33 -88 -23q-49 9 -86 50q-40 45 -42 250zM205 959q-21 14 54 142q7 13 18 41q13 29 19 41q24 44 49 32q19 -8 19 -30q-1 -18 -29 -63q-55 -85 -69 -102q-49 -69 -61 -61z" />
<glyph unicode="&#xf4;" horiz-adv-x="521" d="M71 333q2 -195 49 -260q37 -51 86 -66q24 -7 86 -7q67 0 106 51q46 59 51 151q2 35 2 273q-1 233 -58 301q-35 41 -62 54q-39 19 -96 4q-57 -16 -98 -68q-43 -55 -52 -130q-15 -119 -14 -303zM129 351q-1 160 15 273q9 69 55 121q40 47 75 47q53 1 89 -57q30 -50 37 -295 q9 -309 -55 -366q-37 -33 -88 -23q-49 9 -86 50q-40 45 -42 250zM145 939q9 -14 25 0q17 15 42 59q57 107 62 107q5 2 18 -34q18 -43 36 -88q24 -52 43 -49q19 2 16 24q-1 19 -70 154q-8 14 -16 29q-3 7 -8 14q-8 13 -17 13h-1q-5 1 -10 -3q-12 -9 -95 -160q-11 -18 -15 -28 q-14 -32 -10 -38z" />
<glyph unicode="&#xf5;" horiz-adv-x="534" d="M71 333q2 -195 49 -260q37 -51 86 -66q24 -7 86 -7q67 0 106 51q46 59 51 151q2 35 2 273q-1 233 -58 301q-35 41 -62 54q-39 19 -96 4q-57 -16 -98 -68q-43 -55 -52 -130q-15 -119 -14 -303zM109 1021q1 36 25 66q25 33 71 31q30 -2 62 -34q7 -8 19 -22q11 -15 18 -22 q35 -34 76 -29q31 4 31 60q0 7 -12 22q-9 12 -2 25q4 11 21 8q18 -4 24 -23q22 -60 -16 -98q-27 -27 -58 -27q-33 0 -62 17q-22 14 -47 38q-32 35 -35 39q-27 18 -46 11q-30 -11 -31 -40q-1 -10 4 -24q6 -14 6 -18q1 -22 -18 -25q-31 -3 -30 45zM129 351q-1 160 15 273 q9 69 55 121q40 47 75 47q53 1 89 -57q30 -50 37 -295q9 -309 -55 -366q-37 -33 -88 -23q-49 9 -86 50q-40 45 -42 250z" />
<glyph unicode="&#xf6;" horiz-adv-x="521" d="M71 333q2 -195 49 -260q37 -51 86 -66q24 -7 86 -7q67 0 106 51q46 59 51 151q2 35 2 273q-1 233 -58 301q-35 41 -62 54q-39 19 -96 4q-57 -16 -98 -68q-43 -55 -52 -130q-15 -119 -14 -303zM113 1047q0 40 52 43q11 0 31 -23q22 -25 7 -49q-19 -29 -43 -27 q-25 2 -34 13q-13 15 -13 43zM129 351q-1 160 15 273q9 69 55 121q40 47 75 47q53 1 89 -57q30 -50 37 -295q9 -309 -55 -366q-37 -33 -88 -23q-49 9 -86 50q-40 45 -42 250zM356 1062q20 30 43 27q25 -2 34 -13q13 -15 13 -43q0 -39 -51 -42q-11 -1 -32 23q-22 25 -7 48z " />
<glyph unicode="&#xf7;" horiz-adv-x="618" d="M70 641q10 17 93 15q164 -6 236 -1q100 6 119 -18q40 -54 -104 -57q-14 0 -104 -4q-85 -6 -118 -6q-98 0 -116 26q-16 25 -6 45zM248 403q-1 11 22 30t44 5q28 -18 25 -39q-2 -24 -12 -32q-14 -12 -40 -12q-36 1 -39 48zM249 829q2 24 12 32q14 11 41 11q36 0 39 -48 q0 -11 -21 -29q-24 -20 -46 -6q-27 18 -25 40z" />
<glyph unicode="&#xf8;" horiz-adv-x="533" d="M75 333q5 -150 29 -221q20 -60 21 -57q-2 -17 -12 -40q-13 -32 -15 -36q-8 -28 13 -26q22 3 35 35q13 33 22 36q8 3 54 -9q52 -14 73 -15q67 0 107 52q45 59 50 151q2 33 2 272q0 44 -15 142t-15 103q0 20 19 67q20 50 11 82q-8 30 -28 16q-2 -1 -20 -43q-16 -38 -29 -36 q-6 2 -21 9q-18 10 -29 14q-43 17 -89 5q-57 -15 -98 -68q-43 -54 -52 -129q-18 -149 -13 -304zM132 341q3 201 15 283q10 70 55 122q40 46 75 47q29 0 53 -17q23 -15 27 -34q5 -27 -71 -237q-89 -244 -102 -281q-30 -89 -37 -93q-19 -8 -15 210zM182 85q-5 5 133 358 q68 197 75 205q7 11 10 -69q1 -25 2 -72q1 -54 1 -67q9 -308 -55 -366q-31 -27 -99 -15q-61 11 -67 26z" />
<glyph unicode="&#xf9;" d="M80 818q0 15 10 24q9 8 16 7q29 -2 32 -35q-1 10 -1 -98q-2 -301 2 -355q4 -59 6 -180q2 -69 31 -98q43 -41 124 -36q80 5 109 43q26 32 40 183q13 134 -8 536q-1 16 7 29t18 13q24 0 30 -28q5 -24 3 -160q-1 -63 -2 -364q4 -135 3 -163q2 -115 -1 -120q-4 -12 -26 -15 q-23 -4 -23 9q0 4 1 16v19q0 20 -5 14q-50 -59 -142 -59q-123 0 -182 50q-35 28 -38 160q-3 87 -1 520q1 12 -1 44q-2 33 -2 44zM192 1159q0 21 19 30q24 11 48 -32q5 -12 18 -40q12 -28 19 -41q72 -126 53 -140q-12 -8 -61 60q-13 17 -68 101q-27 45 -28 62z" />
<glyph unicode="&#xfa;" d="M80 818q0 15 10 24q9 8 16 7q29 -2 32 -35q-1 10 -1 -98q-2 -301 2 -355q4 -59 6 -180q2 -69 31 -98q43 -41 124 -36q80 5 109 43q26 32 40 183q13 134 -8 536q-1 16 7 29t18 13q24 0 30 -28q5 -24 3 -160q-1 -63 -2 -364q4 -135 3 -163q2 -115 -1 -120q-4 -12 -26 -15 q-23 -4 -23 9q0 4 1 16v19q0 20 -5 14q-50 -59 -142 -59q-123 0 -182 50q-35 28 -38 160q-3 87 -1 520q1 12 -1 44q-2 33 -2 44zM231 937q-22 14 55 148q7 13 19 42q13 30 20 43q25 45 50 33q20 -9 20 -31q-1 -19 -29 -66q-58 -88 -72 -106q-52 -71 -63 -63z" />
<glyph unicode="&#xfb;" d="M80 818q0 15 10 24q9 8 16 7q29 -2 32 -35q-1 10 -1 -98q-2 -301 2 -355q4 -59 6 -180q2 -69 31 -98q43 -41 124 -36q80 5 109 43q26 32 40 183q13 134 -8 536q-1 16 7 29t18 13q24 0 30 -28q5 -24 3 -160q-1 -63 -2 -364q4 -135 3 -163q2 -115 -1 -120q-4 -12 -26 -15 q-23 -4 -23 9q0 4 1 16v19q0 20 -5 14q-50 -59 -142 -59q-123 0 -182 50q-35 28 -38 160q-3 87 -1 520q1 12 -1 44q-2 33 -2 44zM151 983q11 -17 29 0q20 17 50 69q67 126 73 126q5 2 21 -40q21 -50 42 -103q28 -62 51 -58q22 2 19 28q-2 22 -83 181l-18 34q-4 8 -10 17 q-9 15 -20 15h-1q-6 1 -12 -4q-14 -10 -112 -188q-12 -21 -17 -32q-17 -38 -12 -45z" />
<glyph unicode="&#xfc;" d="M80 818q0 15 10 24q9 8 16 7q29 -2 32 -35q-1 10 -1 -98q-2 -301 2 -355q4 -59 6 -180q2 -69 31 -98q43 -41 124 -36q80 5 109 43q26 32 40 183q13 134 -8 536q-1 16 7 29t18 13q24 0 30 -28q5 -24 3 -160q-1 -63 -2 -364q4 -135 3 -163q2 -115 -1 -120q-4 -12 -26 -15 q-23 -4 -23 9q0 4 1 16v19q0 20 -5 14q-50 -59 -142 -59q-123 0 -182 50q-35 28 -38 160q-3 87 -1 520q1 12 -1 44q-2 33 -2 44zM119 1044q0 40 52 43q11 0 31 -23q22 -25 7 -49q-19 -29 -43 -27q-25 2 -34 13q-13 15 -13 43zM362 1059q20 30 43 27q25 -2 34 -13 q13 -15 13 -43q0 -39 -51 -42q-11 -1 -32 23q-22 25 -7 48z" />
<glyph unicode="&#xfd;" horiz-adv-x="517" d="M52 858q7 34 41 23q21 -7 61 -119q63 -179 115 -283q6 -13 36 84q41 140 40 136q2 7 41 138q11 44 43 44q38 0 28 -57q-3 -19 -25 -71q-27 -63 -40 -104q-15 -51 -53 -148q-38 -98 -44 -117q-11 -37 -32 -155q-21 -123 -25 -136q-25 -93 -41 -93q-20 0 -24 10q-5 13 8 57 q49 165 46 314q-1 58 -68 228q-17 41 -36 77q-18 33 -27 57q-46 102 -44 115zM216 991q-23 15 56 151q7 14 19 43q14 31 21 44q26 46 52 34q20 -9 20 -32q-1 -19 -31 -67q-58 -90 -73 -108q-52 -73 -64 -65z" />
<glyph unicode="&#xfe;" horiz-adv-x="590" d="M104 796q-4 -180 11 -428l1 -289q0 -10 -2 -61q-1 -19 14 -18q55 3 46 126q-19 248 -5 271q-6 -10 151 8q84 9 125 35q75 49 72 204q1 -7 -14 237q-9 138 -115 162q-36 9 -131 15q-88 -2 -91 18q1 17 4 275q-3 102 -6 106q-9 15 -27 13q-19 -3 -19 -27q0 -9 1 -68 q2 -62 2 -85q0 -18 -7 -195q-8 -201 -10 -299zM158 739q0 257 7 276q12 9 151 -14q101 -3 128 -58q22 -43 26 -226q5 -206 -53 -234q-54 -26 -151 -29q-87 -2 -97 10q-8 9 -11 275z" />
<glyph unicode="&#xff;" horiz-adv-x="517" d="M52 858q7 34 41 23q21 -7 61 -119q63 -179 115 -283q6 -13 36 84q41 140 40 136q2 7 41 138q11 44 43 44q38 0 28 -57q-3 -19 -25 -71q-27 -63 -40 -104q-15 -51 -53 -148q-38 -98 -44 -117q-11 -37 -32 -155q-21 -123 -25 -136q-25 -93 -41 -93q-20 0 -24 10q-5 13 8 57 q49 165 46 314q-1 58 -68 228q-17 41 -36 77q-18 33 -27 57q-46 102 -44 115zM88 1082q0 40 52 43q11 0 31 -23q22 -25 7 -49q-19 -29 -43 -27q-25 2 -34 13q-13 15 -13 43zM331 1097q20 30 43 27q25 -2 34 -13q13 -15 13 -43q0 -39 -51 -42q-11 -1 -32 23q-22 25 -7 48z " />
<glyph unicode="&#x178;" horiz-adv-x="494" d="M74 1443q7 34 41 23q25 -9 76 -325q42 -259 50 -275q12 -24 62 254q53 309 51 301q12 48 37 48q33 0 20 -77q-2 -17 -30 -135q-30 -127 -40 -178q-9 -48 -40 -171q-29 -114 -33 -138q-9 -57 -5 -352q1 -43 5 -217q4 -166 4 -170q0 -31 -22 -31q-35 0 -35 35v34 q-1 37 -2 67q-1 106 0 188q3 188 -1 423q-1 73 -56 341q1 -6 -59 232q-27 105 -23 123zM76 1664q0 40 52 43q11 0 31 -23q22 -25 7 -49q-19 -29 -43 -27q-25 2 -34 13q-13 15 -13 43zM319 1679q20 30 43 27q25 -2 34 -13q13 -15 13 -43q0 -39 -51 -42q-11 -1 -32 23 q-22 25 -7 48z" />
<glyph unicode="&#x2c6;" horiz-adv-x="373" d="M45 1517q11 -17 29 0q20 17 50 69q67 126 73 126q5 2 21 -40q21 -50 42 -103q28 -62 51 -58q22 2 19 28q-2 22 -83 181l-18 34q-4 8 -10 17q-9 15 -20 15h-1q-6 1 -12 -4q-14 -10 -112 -188q-12 -21 -17 -32q-17 -38 -12 -45z" />
<glyph unicode="&#x2dc;" horiz-adv-x="453" d="M41 1429q1 38 26 69q26 35 75 33q31 -2 64 -36q8 -8 20 -23q12 -16 19 -23q37 -36 80 -30q32 4 32 62q0 8 -12 23q-10 13 -3 27q5 11 22 8q19 -4 26 -24q23 -63 -17 -103q-28 -28 -61 -28q-34 0 -65 18q-23 14 -49 40q-33 36 -37 40q-28 19 -48 12q-31 -12 -32 -42 q-1 -10 4 -25q6 -15 6 -19q1 -23 -19 -26q-32 -3 -31 47z" />
<glyph unicode="&#x2000;" horiz-adv-x="960" />
<glyph unicode="&#x2001;" horiz-adv-x="1921" />
<glyph unicode="&#x2002;" horiz-adv-x="960" />
<glyph unicode="&#x2003;" horiz-adv-x="1921" />
<glyph unicode="&#x2004;" horiz-adv-x="640" />
<glyph unicode="&#x2005;" horiz-adv-x="480" />
<glyph unicode="&#x2006;" horiz-adv-x="320" />
<glyph unicode="&#x2007;" horiz-adv-x="320" />
<glyph unicode="&#x2008;" horiz-adv-x="240" />
<glyph unicode="&#x2009;" horiz-adv-x="384" />
<glyph unicode="&#x200a;" horiz-adv-x="106" />
<glyph unicode="&#x2010;" horiz-adv-x="634" d="M71 636q10 13 96 11q169 -3 242 -1q103 4 123 -11q42 -41 -107 -43q-15 0 -107 -3q-88 -4 -122 -4q-100 0 -119 18q-17 19 -6 33z" />
<glyph unicode="&#x2011;" horiz-adv-x="634" d="M71 636q10 13 96 11q169 -3 242 -1q103 4 123 -11q42 -41 -107 -43q-15 0 -107 -3q-88 -4 -122 -4q-100 0 -119 18q-17 19 -6 33z" />
<glyph unicode="&#x2012;" horiz-adv-x="634" d="M71 636q10 13 96 11q169 -3 242 -1q103 4 123 -11q42 -41 -107 -43q-15 0 -107 -3q-88 -4 -122 -4q-100 0 -119 18q-17 19 -6 33z" />
<glyph unicode="&#x2013;" horiz-adv-x="548" d="M50 502q9 16 87 14q154 -5 221 -1q94 6 112 -16q38 -51 -98 -54q-13 0 -97 -4q-80 -5 -111 -5q-92 0 -109 24q-15 24 -5 42z" />
<glyph unicode="&#x2014;" horiz-adv-x="1228" d="M70 502q9 16 87 14q794 -5 861 -1q94 6 112 -16q38 -51 -98 -54q-13 0 -97 -4q-720 -5 -751 -5q-92 0 -109 24q-15 24 -5 42z" />
<glyph unicode="&#x2018;" horiz-adv-x="193" d="M34 1344q4 58 37 119q16 30 47 58q32 28 40 16q5 -8 -22 -57q-30 -58 -34 -90q-2 -28 26 -70q22 -34 -2 -67q-10 -14 -38 -15q-32 -1 -47 27q-11 19 -7 79z" />
<glyph unicode="&#x2019;" horiz-adv-x="192" d="M35 1242q-5 7 21 57q31 58 34 90q3 27 -25 70q-22 33 2 66q10 15 38 16q32 0 47 -27q10 -19 7 -80q-4 -58 -37 -118q-16 -30 -47 -58q-32 -29 -40 -16z" />
<glyph unicode="&#x201a;" horiz-adv-x="204" d="M35 -181q-5 8 23 63q34 63 37 98q4 30 -27 77q-24 36 2 72q11 17 42 18q35 0 51 -30q11 -20 8 -87q-4 -64 -41 -130q-17 -32 -51 -63q-35 -32 -44 -18z" />
<glyph unicode="&#x201c;" horiz-adv-x="397" d="M34 1372q4 58 37 119q16 30 47 58q32 28 40 16q5 -8 -22 -57q-30 -58 -34 -90q-2 -28 26 -70q22 -34 -2 -67q-10 -14 -38 -15q-32 -1 -47 27q-11 19 -7 79zM238 1372q4 58 37 119q16 30 47 58q32 28 40 16q5 -8 -22 -57q-30 -58 -34 -90q-2 -28 26 -70q22 -34 -2 -67 q-10 -14 -38 -15q-32 -1 -47 27q-11 19 -7 79z" />
<glyph unicode="&#x201d;" horiz-adv-x="397" d="M35 1565q8 12 40 -16q31 -28 47 -58q33 -61 37 -119q4 -60 -7 -79q-15 -28 -47 -27q-28 1 -38 15q-24 33 -2 67q28 42 26 70q-4 32 -34 90q-27 49 -22 57zM239 1565q8 12 40 -16q31 -28 47 -58q33 -61 37 -119q4 -60 -7 -79q-15 -28 -47 -27q-28 1 -38 15q-24 33 -2 67 q28 42 26 70q-4 32 -34 90q-27 49 -22 57z" />
<glyph unicode="&#x201e;" horiz-adv-x="397" d="M35 341q8 12 40 -16q31 -28 47 -58q33 -61 37 -119q4 -60 -7 -79q-15 -28 -47 -27q-28 1 -38 15q-24 33 -2 67q28 42 26 70q-4 32 -34 90q-27 49 -22 57zM239 341q8 12 40 -16q31 -28 47 -58q33 -61 37 -119q4 -60 -7 -79q-15 -28 -47 -27q-28 1 -38 15q-24 33 -2 67 q28 42 26 70q-4 32 -34 90q-27 49 -22 57z" />
<glyph unicode="&#x2022;" horiz-adv-x="192" d="M33 546q2 30 24 53q9 10 43 10q32 0 47 -20q15 -21 15 -45q0 -62 -61 -61q-71 2 -68 63z" />
<glyph unicode="&#x2026;" horiz-adv-x="794" d="M33 59q2 30 24 53q9 10 43 10q32 0 47 -20q15 -21 15 -45q0 -62 -61 -61q-71 2 -68 63zM337 59q2 30 24 53q9 10 43 10q32 0 47 -20q15 -21 15 -45q0 -62 -61 -61q-71 2 -68 63zM635 59q2 30 24 53q9 10 43 10q32 0 47 -20q15 -21 15 -45q0 -62 -61 -61q-71 2 -68 63z " />
<glyph unicode="&#x202f;" horiz-adv-x="384" />
<glyph unicode="&#x2039;" horiz-adv-x="482" d="M70 532q-10 -23 181 -225l66 -82l17 -20q16 -20 19 -23q18 -16 38 -13q31 5 13 51q-5 9 -107 129q-168 175 -162 179q-7 29 163 230q63 72 91 114q24 35 15 43q-27 21 -51 5l-86 -113q-201 -248 -197 -275z" />
<glyph unicode="&#x203a;" horiz-adv-x="482" d="M78 224q-18 -46 13 -51q20 -3 38 13q3 3 19 23l17 20l66 82q191 202 181 225q4 27 -197 275l-86 113q-24 16 -51 -5q-9 -8 15 -43q28 -42 91 -114q170 -201 163 -230q6 -4 -162 -179q-102 -120 -107 -129z" />
<glyph unicode="&#x205f;" horiz-adv-x="480" />
<glyph unicode="&#x20ac;" horiz-adv-x="702" d="M97 836q-10 -15 5 -33q10 -11 57 -16q-1 -69 -2 -114q-87 -8 -57 -38q13 -14 57 -15q-2 -367 63 -501q56 -119 165 -119q117 0 190 101q67 90 38 134q-43 33 -52 -14q-2 -78 -102 -136q-110 -64 -181 48q-52 82 -59 281q-2 60 -11 208h4q68 2 223 -2q78 -2 87 9 q10 15 -6 32q-16 19 -108 19q-31 0 -105 -2q-86 -3 -97 -3q-3 59 -3 90v20h9q31 -1 112 2q84 3 98 3q137 1 97 40q-17 17 -111 13q-66 -3 -205 1q1 174 8 241q6 87 48 208q39 116 139 111q146 -8 140 -131q0 -16 16 -24q14 -6 22 2q20 21 1 83q-23 79 -110 116 q-79 33 -151 -8q-61 -34 -85 -96q-70 -168 -70 -458v-42q-54 3 -64 -10z" />
<glyph unicode="&#x2122;" horiz-adv-x="1100" d="M54 1483q3 10 210 11q182 2 191 2q35 0 35 -18q0 -26 -19 -28q-19 -1 -120 0q-35 0 -44 -6q-19 -14 -19 -183q9 -619 6 -622q-9 -6 -38 -2q-7 0 -12 480l2 198q0 120 -6 128q-12 14 -169 3q-11 -1 -16 12q-5 12 -1 25zM543 850l5 470q0 172 -2 160q3 19 22 19 q17 0 23 -12q6 -15 58 -221q9 -35 35 -151q22 -95 32 -130q3 -11 34 -157q23 -108 30 -92q20 41 78 308q8 35 32 122q16 81 25 114q8 29 28 113q16 71 21 87q7 20 28 19q19 0 24 -16q4 -10 -1 -100q-7 -112 -7 -144q0 -40 5 -243q4 -203 4 -231q0 -111 -8 -122 q-18 -28 -30 9q-5 14 -6 221l-1 231q-1 1 1 109q1 78 -6 73q-8 -5 -76 -271q-7 -27 -32 -147q-20 -94 -32 -125q-5 -13 -13 -38q-8 -23 -12 -33q-13 -33 -26 -33q-24 0 -113 398q-38 168 -38 171q-24 97 -31 71q-8 -34 -8 -397l6 -206q1 -16 0 -29q-2 -13 -19 -13 q-28 0 -28 112z" />
<glyph unicode="&#x25fc;" horiz-adv-x="835" d="M0 0v835h835v-835h-835z" />
</font>
</defs>
</svg>
